<?xml version="1.0" standalone="no"?>
<!DOCTYPE svg PUBLIC "-//W3C//DTD SVG 20010904//EN"
 "http://www.w3.org/TR/2001/REC-SVG-20010904/DTD/svg10.dtd">
<svg version="1.0" xmlns="http://www.w3.org/2000/svg"
 width="960.000000pt" height="960.000000pt" viewBox="0 0 960.000000 960.000000"
 preserveAspectRatio="xMidYMid meet">
<metadata>
Created by potrace 1.14, written by Peter Selinger 2001-2017
</metadata>
<g transform="translate(0.000000,960.000000) scale(0.100000,-0.100000)"
fill="#000000" stroke="none">
<path d="M400 4853 c0 -3027 2 -3413 15 -3414 53 -3 84 -2 98 4 10 4 17 2 17
-3 0 -6 9 -6 25 0 13 5 27 6 29 1 3 -4 26 -5 51 -1 25 4 48 3 51 -1 2 -5 16
-4 29 1 16 6 25 6 25 0 0 -6 9 -6 25 0 16 6 25 6 25 0 0 -6 10 -6 26 0 14 6
23 7 21 2 -3 -4 10 -7 29 -7 19 0 34 3 34 7 0 4 10 4 23 -1 21 -8 66 -6 75 4
2 2 15 0 28 -5 14 -6 26 -6 29 0 4 7 13 7 24 0 12 -6 22 -5 29 2 8 8 15 9 22
2 6 -6 24 -9 40 -6 34 5 32 -8 30 172 -1 63 -1 122 -1 130 0 8 0 83 0 165 -1
83 -1 157 0 165 0 8 0 56 0 105 0 50 0 97 0 105 1 76 0 224 -2 263 -1 26 0 47
3 47 3 0 4 21 3 47 -2 27 -2 80 -2 118 0 100 -1 212 -4 268 -1 26 0 47 3 47 3
0 4 21 3 47 -2 27 -2 80 -2 118 0 100 -1 212 -4 268 -1 26 0 47 3 47 3 0 4 21
3 47 -2 27 -2 80 -2 118 0 100 -1 212 -4 268 -1 26 0 47 3 47 3 0 4 21 3 47
-2 27 -2 80 -2 118 0 39 -1 106 -1 150 -1 44 -2 85 -1 90 0 13 0 154 0 178 0
9 0 82 0 162 0 80 0 152 0 160 0 8 0 80 0 160 0 80 0 152 0 160 0 8 0 80 0
160 0 80 0 153 0 163 0 9 0 85 0 167 -1 83 -1 157 0 165 2 43 2 187 0 196 -5
28 2 196 9 190 4 -4 7 -11 8 -14 0 -4 3 -14 6 -22 3 -8 16 -49 28 -90 12 -41
27 -88 34 -105 6 -16 11 -32 11 -35 4 -24 19 -77 24 -85 4 -5 13 -30 20 -55
12 -43 21 -75 104 -340 20 -63 52 -169 72 -235 20 -66 40 -129 45 -140 6 -17
31 -97 35 -115 2 -11 57 -186 62 -200 3 -8 8 -24 10 -35 1 -11 7 -29 13 -40 5
-11 15 -40 21 -65 15 -53 14 -51 22 -70 11 -28 30 -95 32 -110 1 -8 7 -28 14
-43 6 -16 11 -34 11 -41 0 -6 5 -17 12 -24 7 -7 9 -12 6 -12 -4 0 4 -33 18
-73 13 -39 25 -73 25 -74 0 -2 1 -8 3 -15 3 -7 12 -36 20 -64 9 -28 18 -60 21
-72 2 -11 9 -31 16 -44 7 -13 12 -24 11 -25 -1 -2 -2 -4 -1 -5 0 -2 2 -10 4
-18 4 -16 28 -94 115 -370 28 -91 53 -169 54 -175 11 -44 29 -102 34 -110 4
-5 7 -15 8 -22 1 -7 21 -72 44 -145 23 -73 54 -173 69 -223 16 -49 39 -124 52
-165 13 -41 24 -77 24 -80 1 -3 13 -45 29 -95 15 -49 41 -133 58 -185 16 -52
33 -106 38 -120 13 -37 73 -233 76 -245 1 -5 14 -48 29 -95 15 -47 28 -92 30
-100 2 -8 4 -16 5 -17 2 -2 3 -6 4 -10 2 -9 62 -202 79 -253 6 -19 12 -37 12
-40 4 -26 41 -127 50 -135 11 -11 185 -12 203 -1 7 4 12 4 12 -1 0 -4 25 -8
55 -8 30 0 55 4 55 9 0 5 6 5 13 0 6 -5 66 -8 132 -7 66 2 125 3 130 3 6 0 36
-1 69 -3 67 -3 84 6 92 48 3 16 10 35 16 42 6 7 8 13 5 13 -3 0 2 24 12 53 10
28 19 54 19 57 1 6 1 7 37 120 15 46 28 89 29 95 3 13 55 185 63 205 3 8 7 20
8 25 2 6 24 78 50 160 26 83 51 166 57 185 5 19 12 42 15 50 4 8 7 17 8 20 20
65 29 97 31 105 0 6 4 17 7 25 13 33 61 186 64 201 1 8 16 55 32 102 16 48 27
87 25 87 -3 0 0 9 6 21 6 11 13 28 15 38 3 16 123 406 145 471 4 14 25 79 45
145 20 66 50 163 67 215 17 52 31 100 33 105 1 6 5 17 8 25 9 25 57 185 57
192 0 5 7 25 14 45 8 21 36 108 61 193 26 85 49 162 52 170 4 8 7 20 8 26 2 7
12 38 23 70 11 33 33 104 50 159 28 93 65 210 158 510 21 66 39 123 40 128 1
4 2 8 4 10 2 2 5 17 14 55 3 12 8 28 13 35 4 6 8 17 9 23 1 6 10 38 20 70 10
33 18 62 20 67 1 4 2 8 4 10 1 1 3 9 5 17 2 8 20 67 40 130 33 102 69 223 96
317 6 18 13 34 17 37 4 2 6 -1093 5 -2435 0 -1341 2 -2437 6 -2435 4 3 13 1
21 -4 9 -5 19 -5 26 1 8 6 14 7 18 0 4 -6 18 -6 36 -1 17 5 32 5 35 0 3 -5 16
-5 30 0 16 6 25 6 25 0 0 -6 10 -6 26 0 14 6 23 7 21 2 -6 -9 67 -7 82 3 6 3
11 2 11 -4 0 -7 8 -7 25 -1 14 5 27 5 30 0 3 -5 18 -5 35 0 17 5 32 5 35 0 3
-5 16 -5 30 0 16 6 25 6 25 0 0 -6 10 -6 26 0 14 6 23 7 21 2 -6 -9 67 -7 82
3 6 3 11 2 11 -4 0 -7 8 -7 25 -1 13 5 26 6 29 2 5 -9 86 -3 87 7 0 3 1 722 2
1596 l2 1590 40 2 c22 1 43 2 48 3 10 2 116 2 125 -1 4 -1 10 -1 13 -1 11 1
115 2 206 2 50 0 95 0 100 1 4 1 13 1 18 0 6 -1 53 -2 105 -1 52 1 101 1 108
1 196 -2 243 -1 251 3 5 4 12 3 15 -2 2 -4 34 -5 71 -2 37 3 68 3 70 0 2 -3
31 -3 65 0 33 3 63 4 65 1 11 -10 275 5 410 24 50 7 340 80 340 85 0 1 7 3 15
5 45 9 253 102 338 151 53 30 226 146 267 179 21 17 62 54 93 83 30 28 59 52
63 52 5 0 9 3 9 8 0 4 30 39 65 77 36 39 65 73 65 76 0 3 9 17 21 30 32 36 99
136 99 148 0 5 4 11 8 13 8 3 102 171 102 183 1 3 9 25 20 49 23 55 77 220 85
261 12 62 16 80 20 95 12 43 20 152 20 295 0 144 -4 201 -20 288 -3 15 -7 37
-9 50 -6 31 -22 96 -34 135 -6 17 -8 32 -4 32 4 0 2 4 -3 8 -6 4 -21 39 -34
77 -50 146 -166 348 -281 490 -152 185 -364 364 -550 463 -88 47 -136 70 -185
92 -27 12 -59 26 -70 31 -11 5 -49 18 -85 29 -36 12 -72 24 -80 27 -8 3 -24 8
-34 10 -10 2 -53 12 -95 22 -42 11 -96 22 -121 26 -25 4 -52 9 -60 10 -79 15
-260 18 -912 19 -516 1 -758 -2 -758 -9 0 -6 -3 -6 -8 1 -5 8 -174 11 -562 12
-305 0 -562 -1 -571 -4 -9 -2 -16 -10 -17 -17 -1 -14 -3 -25 -37 -142 -15 -49
-28 -97 -30 -105 -2 -8 -4 -15 -5 -15 -1 0 -3 -7 -5 -15 -2 -8 -11 -42 -20
-75 -9 -33 -18 -67 -20 -75 -2 -8 -4 -17 -5 -20 -1 -3 -2 -8 -1 -12 0 -5 -4
-8 -10 -8 -5 0 -8 -3 -5 -8 2 -4 -18 -86 -46 -182 -27 -96 -51 -182 -53 -190
-2 -8 -4 -15 -5 -15 -1 0 -3 -7 -5 -15 -1 -8 -24 -89 -50 -180 -26 -91 -49
-172 -51 -180 -1 -8 -31 -112 -64 -230 -34 -118 -63 -222 -65 -230 -2 -8 -16
-55 -31 -105 -14 -49 -28 -97 -29 -105 -2 -8 -4 -15 -5 -15 -1 0 -3 -8 -5 -18
-2 -10 -13 -51 -25 -90 -12 -40 -24 -80 -26 -89 -7 -33 -13 -53 -33 -115 -10
-35 -17 -63 -14 -63 3 0 0 -7 -7 -15 -7 -8 -9 -15 -6 -15 4 0 2 -8 -3 -18 -6
-11 -12 -30 -15 -43 -2 -13 -18 -73 -36 -134 -17 -60 -33 -117 -35 -125 -2 -8
-8 -28 -15 -45 -6 -16 -11 -30 -10 -30 1 0 -3 -20 -10 -45 -7 -25 -14 -52 -15
-60 -4 -17 -40 -140 -56 -187 -5 -18 -12 -40 -14 -50 -1 -10 -24 -90 -49 -178
-26 -88 -49 -169 -51 -181 -3 -11 -18 -66 -35 -122 -16 -56 -31 -110 -33 -119
-2 -10 -10 -40 -19 -68 -21 -65 -98 -338 -103 -365 -2 -11 -7 -25 -10 -30 -3
-5 -8 -18 -10 -27 -3 -16 -18 -71 -77 -278 -10 -38 -20 -76 -20 -82 -1 -7 -5
-13 -10 -13 -5 0 -7 -4 -4 -9 3 -5 -3 -36 -15 -70 -11 -34 -17 -66 -14 -71 3
-4 2 -10 -3 -12 -4 -1 -25 -66 -46 -143 -21 -77 -41 -144 -44 -150 -3 -5 -7
-16 -8 -25 -3 -20 -48 -182 -80 -288 -14 -46 -27 -94 -30 -107 -2 -14 -9 -37
-15 -52 l-11 -28 -13 45 c-54 180 -65 218 -65 232 0 9 -4 20 -10 23 -5 3 -10
16 -10 28 0 12 -12 60 -26 107 -14 47 -27 92 -29 100 -2 8 -13 49 -25 90 -11
41 -23 83 -25 93 -2 9 -6 21 -9 25 -3 5 -7 19 -9 33 -3 13 -30 114 -61 224
-31 110 -61 218 -67 240 -6 22 -15 51 -20 65 -9 27 -68 242 -74 269 -2 9 -13
45 -24 81 -11 36 -29 99 -40 140 -22 83 -39 143 -101 360 -22 80 -42 152 -44
161 -3 9 -14 49 -26 89 -12 40 -23 81 -25 92 -2 10 -16 58 -30 106 -14 48 -30
103 -35 122 -5 19 -18 64 -28 100 -17 58 -33 116 -36 130 -3 14 -49 177 -54
190 -3 8 -6 22 -8 31 -2 9 -23 85 -48 170 -24 85 -61 215 -81 289 -20 74 -39
142 -42 150 -4 8 -7 20 -8 25 -1 6 -3 12 -4 15 -2 3 -4 13 -6 23 -2 10 -11 41
-20 70 -9 28 -18 61 -20 72 -2 11 -4 20 -5 20 -1 0 -3 7 -5 15 -1 8 -15 56
-30 105 -14 50 -29 101 -31 115 -3 13 -14 52 -24 85 -10 33 -51 177 -90 320
-40 143 -74 267 -77 275 -4 8 -7 20 -9 27 -1 7 -12 45 -23 85 -60 210 -73 255
-77 277 -3 14 -7 28 -10 33 -3 4 -7 16 -9 25 -1 10 -10 43 -19 74 l-17 57
-569 -1 -570 -1 0 -3413z m6940 2763 c123 -12 385 -90 440 -131 8 -6 35 -21
59 -34 148 -80 276 -193 389 -342 23 -31 42 -61 42 -67 0 -5 4 -12 8 -14 14
-5 89 -155 94 -188 1 -3 8 -21 16 -40 55 -132 74 -415 36 -569 -64 -267 -175
-448 -392 -644 -60 -53 -260 -181 -282 -180 -3 1 -21 -7 -40 -17 -45 -23 -224
-79 -270 -84 -19 -3 -35 -5 -35 -6 0 -6 -55 -11 -142 -14 -56 -3 -107 -7 -113
-11 -5 -3 -10 -2 -10 4 0 5 -11 6 -27 2 -16 -4 -45 -4 -66 -1 -20 4 -40 3 -43
-1 -3 -5 -12 -5 -22 0 -9 5 -26 5 -39 0 -12 -4 -25 -5 -27 0 -3 4 -26 5 -51 1
-25 -4 -45 -3 -45 2 0 5 -5 6 -10 3 -14 -9 -118 -10 -126 -2 -4 3 -15 2 -25
-3 -12 -7 -20 -7 -24 0 -4 7 -12 7 -24 0 -10 -5 -21 -7 -24 -4 -10 10 -42 11
-59 3 -10 -6 -19 -5 -23 1 -4 6 -11 8 -16 5 -8 -6 -113 -9 -131 -5 -11 2 -76
2 -85 0 -18 -4 -104 -1 -112 5 -5 3 -12 1 -16 -5 -4 -6 -12 -7 -22 -1 -9 4
-31 5 -49 1 -18 -4 -35 -5 -38 -2 -5 5 -71 7 -78 2 -2 -1 -40 -2 -84 -3 l-81
-2 0 1175 0 1175 746 -1 c410 -1 771 -5 801 -8z"/>
</g>
</svg>
