<?xml version="1.0" encoding="UTF-8"?>
<svg xmlns="http://www.w3.org/2000/svg" xmlns:xlink="http://www.w3.org/1999/xlink" width="30px" height="30px" viewBox="0 0 30 30" version="1.1">
<g id="surface1">
<path style=" stroke:none;fill-rule:nonzero;fill:rgb(0%,0%,0%);fill-opacity:1;" d="M 28.75 16.222656 L 1.25 16.222656 C 0.558594 16.222656 0 15.664062 0 14.972656 C 0 14.285156 0.558594 13.722656 1.25 13.722656 L 28.75 13.722656 C 29.441406 13.722656 30 14.285156 30 14.972656 C 30 15.664062 29.441406 16.222656 28.75 16.222656 Z M 28.75 16.222656 "/>
<path style=" stroke:none;fill-rule:nonzero;fill:rgb(0%,0%,0%);fill-opacity:1;" d="M 28.75 6.640625 L 1.25 6.640625 C 0.558594 6.640625 0 6.082031 0 5.390625 C 0 4.699219 0.558594 4.140625 1.25 4.140625 L 28.75 4.140625 C 29.441406 4.140625 30 4.699219 30 5.390625 C 30 6.082031 29.441406 6.640625 28.75 6.640625 Z M 28.75 6.640625 "/>
<path style=" stroke:none;fill-rule:nonzero;fill:rgb(0%,0%,0%);fill-opacity:1;" d="M 28.75 25.808594 L 1.25 25.808594 C 0.558594 25.808594 0 25.246094 0 24.558594 C 0 23.867188 0.558594 23.308594 1.25 23.308594 L 28.75 23.308594 C 29.441406 23.308594 30 23.867188 30 24.558594 C 30 25.246094 29.441406 25.808594 28.75 25.808594 Z M 28.75 25.808594 "/>
</g>
</svg>
