<svg width="769px" height="559px" viewBox="0 0 769 559" fill="none" xmlns="http://www.w3.org/2000/svg">
<path fill-rule="evenodd" clip-rule="evenodd" d="M241.787 167.234C347.307 161.928 431.847 247.621 463.99 348.106C495.594 446.903 469.604 556.81 386.173 618.6C300.231 682.249 178.583 688.492 95.8194 620.775C23.3429 561.474 123.483 505.488 152.149 416.418C181.253 325.987 146.772 172.011 241.787 167.234Z" stroke="#BF3F6E" stroke-opacity="0.5"/>
<path fill-rule="evenodd" clip-rule="evenodd" d="M199.579 172.176C279.173 168.181 342.941 232.707 367.187 308.37C391.025 382.764 371.421 465.522 308.489 512.049C243.663 559.976 151.904 564.677 89.4756 513.687C34.8065 469.034 110.342 426.877 131.965 359.808C153.918 291.716 127.909 175.773 199.579 172.176Z" stroke="#BF3F6E" stroke-opacity="0.5"/>
<path fill-rule="evenodd" clip-rule="evenodd" d="M170.319 161.148C237.468 157.787 291.266 212.071 311.721 275.724C331.833 338.309 315.294 407.931 262.201 447.073C207.511 487.393 130.098 491.347 77.4305 448.451C31.3091 410.886 95.0345 375.42 113.277 318.998C131.798 261.713 109.855 164.174 170.319 161.148Z" stroke="#BF3F6E" stroke-opacity="0.5"/>
<g filter="url(#filter0_f)">
<path fill-rule="evenodd" clip-rule="evenodd" d="M320.67 689.819C291.516 687.782 260.807 685.39 238.316 666.78C216 648.316 203.929 619.553 200.988 590.793C198.32 564.703 217.096 542.811 223.024 517.263C230.349 485.697 211.202 439.465 239.71 423.913C269.115 407.871 299.577 448.368 331.688 457.982C353.143 464.405 375.456 461.78 395.994 470.701C423.305 482.564 454.652 491.895 469.299 517.757C485.38 546.149 488.239 582.462 476.527 612.897C464.839 643.273 436.653 664.162 407.407 678.596C380.626 691.814 350.485 691.902 320.67 689.819Z" fill="#E8899E" fill-opacity="0.4"/>
</g>
<g filter="url(#filter1_f)">
<path fill-rule="evenodd" clip-rule="evenodd" d="M633.473 439.234C601.483 436.999 567.788 434.375 543.109 413.955C518.623 393.695 505.378 362.134 502.151 330.578C499.223 301.951 519.826 277.93 526.33 249.897C534.367 215.261 513.359 164.533 544.639 147.468C576.904 129.866 610.328 174.302 645.562 184.85C669.104 191.898 693.587 189.017 716.123 198.806C746.089 211.823 780.485 222.061 796.557 250.439C814.201 281.592 817.339 321.436 804.488 354.832C791.662 388.161 760.735 411.082 728.646 426.92C699.259 441.423 666.187 441.52 633.473 439.234Z" fill="#F279B2" fill-opacity="0.3"/>
</g>
<g filter="url(#filter2_f)">
<path fill-rule="evenodd" clip-rule="evenodd" d="M663.197 693.28C640 691.66 615.566 689.757 597.67 674.949C579.913 660.258 570.309 637.371 567.969 614.488C565.846 593.729 580.786 576.31 585.503 555.982C591.33 530.865 576.096 494.08 598.779 481.705C622.176 468.941 646.414 501.164 671.964 508.813C689.035 513.923 706.79 511.835 723.131 518.933C744.862 528.372 769.804 535.797 781.458 556.375C794.253 578.966 796.528 607.859 787.209 632.076C777.909 656.245 755.482 672.866 732.212 684.351C710.903 694.868 686.92 694.938 663.197 693.28Z" fill="#F279B2" fill-opacity="0.3"/>
</g>
<path d="M532 652.5L532.475 653.625L532.949 654.749L533.424 655.871L533.898 656.99L534.373 658.104L534.847 659.214L535.322 660.318L535.796 661.414L536.271 662.503L536.745 663.582L537.22 664.652L537.694 665.711L538.169 666.758L538.643 667.791L539.118 668.812L539.592 669.817L540.067 670.807L540.541 671.781L541.016 672.737L541.49 673.675L541.965 674.593L542.439 675.492L542.914 676.371L543.389 677.227L543.863 678.062L544.338 678.874L544.812 679.661L545.287 680.425L545.761 681.163L546.236 681.875L546.71 682.561L547.185 683.22L547.659 683.852L548.134 684.455L548.608 685.029L549.083 685.574L549.557 686.089L550.032 686.574L550.506 687.029L550.981 687.452L551.455 687.844L551.93 688.204L552.404 688.532L552.879 688.827L553.354 689.09L553.828 689.32L554.303 689.517L554.777 689.68L555.252 689.81L555.726 689.907L556.201 689.969L556.675 689.998L557.15 689.994L557.624 689.955L558.099 689.883L558.573 689.777L559.048 689.638L559.522 689.465L559.997 689.259L560.471 689.02L560.946 688.748L561.42 688.443L561.895 688.106L562.369 687.737L562.844 687.337L563.318 686.905L563.793 686.442L564.268 685.948L564.742 685.424L565.217 684.871L565.691 684.289L566.166 683.678L566.64 683.038L567.115 682.372L567.589 681.678L568.064 680.959L568.538 680.213L569.013 679.443L569.487 678.648L569.962 677.83L570.436 676.99L570.911 676.127L571.385 675.243L571.86 674.338L572.334 673.414L572.809 672.471L573.283 671.51L573.758 670.531L574.232 669.537L574.707 668.527L575.182 667.503L575.656 666.465L576.131 665.415L576.605 664.353L577.08 663.281L577.554 662.199L578.029 661.108L578.503 660.009L578.978 658.904L579.452 657.792L579.927 656.676L580.401 655.557L580.876 654.434L581.35 653.31L581.825 652.185L582.299 651.06L582.774 649.937L583.248 648.816L583.723 647.698L584.197 646.585L584.672 645.477L585.146 644.375L585.621 643.28L586.096 642.194L586.57 641.117L587.045 640.051L587.519 638.995L587.994 637.952L588.468 636.922L588.943 635.906L589.417 634.904L589.892 633.919L590.366 632.95L590.841 631.999L591.315 631.067L591.79 630.153L592.264 629.26L592.739 628.388L593.213 627.537L593.688 626.709L594.162 625.904L594.637 625.123L595.111 624.366L595.586 623.635L596.061 622.93L596.535 622.252L597.01 621.601L597.484 620.977L597.959 620.382L598.433 619.816L598.908 619.279L599.382 618.772L599.857 618.296L600.331 617.85L600.806 617.436L601.28 617.053L601.755 616.701L602.229 616.383L602.704 616.096L603.178 615.843L603.653 615.622L604.127 615.435L604.602 615.28L605.076 615.16L605.551 615.073L606.025 615.02L606.5 615L606.975 615.014L607.449 615.062L607.924 615.144L608.398 615.259L608.873 615.408L609.347 615.59L609.822 615.805L610.296 616.054L610.771 616.335L611.245 616.648L611.72 616.994L612.194 617.372L612.669 617.782L613.143 618.223L613.618 618.694L614.092 619.196L614.567 619.728L615.041 620.29L615.516 620.88L615.99 621.499L616.465 622.146L616.939 622.82L617.414 623.521L617.889 624.248L618.363 625.001L618.838 625.778L619.312 626.579L619.787 627.404L620.261 628.251L620.736 629.12L621.21 630.01L621.685 630.92L622.159 631.849L622.634 632.798L623.108 633.764L623.583 634.746L624.057 635.745L624.532 636.759L625.006 637.787L625.481 638.828L625.955 639.882L626.43 640.947L626.904 642.022L627.379 643.107L627.854 644.2L628.328 645.301L628.803 646.408L629.277 647.521L629.752 648.638L630.226 649.758L630.701 650.881L631.175 652.006L631.65 653.131L632.124 654.255L632.599 655.378L633.073 656.498L633.548 657.615L634.022 658.727L634.497 659.833L634.971 660.933L635.446 662.025L635.92 663.109L636.395 664.183L636.869 665.247L637.344 666.299L637.818 667.339L638.293 668.365L638.768 669.377L639.242 670.374L639.717 671.355L640.191 672.319L640.666 673.265L641.14 674.192L641.615 675.1L642.089 675.987L642.564 676.854L643.038 677.698L643.513 678.52L643.987 679.318L644.462 680.092L644.936 680.842L645.411 681.565L645.885 682.263L646.36 682.934L646.834 683.578L647.309 684.193L647.783 684.78L648.258 685.338L648.732 685.867L649.207 686.365L649.682 686.833L650.156 687.27L650.631 687.676L651.105 688.05L651.58 688.392L652.054 688.702L652.529 688.979L653.003 689.223L653.478 689.435L653.952 689.613L654.427 689.757L654.901 689.869L655.376 689.946L655.85 689.99L656.325 690L656.799 689.976L657.274 689.919L657.748 689.828L658.223 689.703L658.697 689.545L659.172 689.354L659.646 689.129L660.121 688.872L660.596 688.581L661.07 688.258L661.545 687.903L662.019 687.517L662.494 687.098L662.968 686.649L663.443 686.169L663.917 685.658L664.392 685.118L664.866 684.548L665.341 683.95L665.815 683.323L666.29 682.668L666.764 681.986L667.239 681.278L667.713 680.544L668.188 679.785L668.662 679.001L669.137 678.193L669.611 677.362L670.086 676.509L670.561 675.634L671.035 674.738L671.51 673.822L671.984 672.887L672.459 671.934L672.933 670.963L673.408 669.976L673.882 668.973L674.357 667.955L674.831 666.923L675.306 665.878L675.78 664.821L676.255 663.753L676.729 662.675L677.204 661.588L677.678 660.493L678.153 659.39L678.627 658.281L679.102 657.167L679.576 656.049L680.051 654.928L680.525 653.804L681 652.679L681.475 651.555L681.949 650.431L682.424 649.308L682.898 648.189L683.373 647.074L683.847 645.963L684.322 644.858L684.796 643.761L685.271 642.671L685.745 641.59L686.22 640.518L686.694 639.458L687.169 638.409L687.643 637.373L688.118 636.35L688.592 635.343L689.067 634.35L689.541 633.374L690.016 632.415L690.49 631.474L690.965 630.552L691.439 629.65L691.914 628.768L692.389 627.908L692.863 627.07L693.338 626.255L693.812 625.463L694.287 624.696L694.761 623.954L695.236 623.237L695.71 622.547L696.185 621.883L696.659 621.248L697.134 620.64L697.608 620.061L698.083 619.511L698.557 618.991L699.032 618.501L699.506 618.042L699.981 617.614L700.455 617.217L700.93 616.852L701.404 616.519L701.879 616.218L702.353 615.95L702.828 615.715L703.303 615.513L703.777 615.344L704.252 615.209L704.726 615.107L705.201 615.039L705.675 615.005L706.15 615.004L706.624 615.037L707.099 615.104L707.573 615.204L708.048 615.338L708.522 615.506L708.997 615.707L709.471 615.94L709.946 616.207L710.42 616.507L710.895 616.838L711.369 617.202L711.844 617.598L712.318 618.025L712.793 618.483L713.268 618.972L713.742 619.491L714.217 620.04L714.691 620.617L715.166 621.224L715.64 621.859L716.115 622.521L716.589 623.21L717.064 623.926L717.538 624.667L718.013 625.433L718.487 626.224L718.962 627.038L719.436 627.876L719.911 628.735L720.385 629.616L720.86 630.517L721.334 631.439L721.809 632.379L722.283 633.337L722.758 634.312L723.232 635.304L723.707 636.312L724.182 637.334L724.656 638.369L725.131 639.417L725.605 640.477L726.08 641.548L726.554 642.629L727.029 643.719L727.503 644.816L727.978 645.921L728.452 647.031L728.927 648.146L729.401 649.265L729.876 650.388L730.35 651.512L730.825 652.636L731.299 653.761L731.774 654.885L732.248 656.006L732.723 657.125L733.197 658.239L733.672 659.348L734.147 660.451L734.621 661.546L735.096 662.634L735.57 663.712L736.045 664.781L736.519 665.838L736.994 666.883L737.468 667.916L737.943 668.934L738.417 669.938L738.892 670.926L739.366 671.897L739.841 672.851L740.315 673.787L740.79 674.703L741.264 675.6L741.739 676.476L742.213 677.33L742.688 678.161L743.162 678.97L743.637 679.755L744.111 680.515L744.586 681.251L745.061 681.96L745.535 682.643L746.01 683.298L746.484 683.926L746.959 684.526L747.433 685.097L747.908 685.638L748.382 686.15L748.857 686.631L749.331 687.082L749.806 687.501L750.28 687.889L750.755 688.245L751.229 688.569L751.704 688.861L752.178 689.12L752.653 689.346L753.127 689.538L753.602 689.698L754.076 689.824L754.551 689.916L755.025 689.975L755.5 690L755.975 689.991L756.449 689.948L756.924 689.872L757.398 689.762L757.873 689.619L758.347 689.442L758.822 689.232L759.296 688.989L759.771 688.713L760.245 688.404L760.72 688.063L761.194 687.691L761.669 687.286L762.143 686.85L762.618 686.383L763.092 685.886L763.567 685.359L764.041 684.802L764.516 684.216L764.99 683.602L765.465 682.959L765.939 682.289L766.414 681.593L766.889 680.87L767.363 680.121L767.838 679.348L768.312 678.551L768.787 677.73L769.261 676.886L769.736 676.021L770.21 675.134L770.685 674.227L771.159 673.301L771.634 672.355L772.108 671.392L772.583 670.412L773.057 669.416L773.532 668.404L774.006 667.378L774.481 666.339L774.955 665.287L775.43 664.224L775.904 663.15L776.379 662.067L776.854 660.975L777.328 659.876L777.803 658.769L778.277 657.658L778.752 656.541L779.226 655.421L779.701 654.298L780.175 653.174L780.65 652.049L781.124 650.924L781.599 649.801L782.073 648.681L782.548 647.563L783.022 646.45L783.497 645.343L783.971 644.242L784.446 643.149L784.92 642.064L785.395 640.988L785.869 639.922L786.344 638.868L786.818 637.827L787.293 636.798L787.768 635.784L788.242 634.784L788.717 633.801L789.191 632.834L789.666 631.885L790.14 630.955L790.615 630.044L791.089 629.153L791.564 628.284L792.038 627.436L792.513 626.61L792.987 625.808L793.462 625.03L793.936 624.277L794.411 623.549L794.885 622.847L795.36 622.172L795.834 621.524L796.309 620.904L796.783 620.312L797.258 619.749L797.733 619.216L798.207 618.713L798.682 618.24L799.156 617.798L799.631 617.388L800.105 617.008L800.58 616.661L801.054 616.346L801.529 616.064L802.003 615.814L802.478 615.598L802.952 615.414L803.427 615.264L803.901 615.148L804.376 615.065L804.85 615.015L805.325 615L805.799 615.018L806.274 615.07L806.748 615.156L807.223 615.275L807.697 615.428L808.172 615.614L808.646 615.834L809.121 616.086L809.596 616.371L810.07 616.689L810.545 617.039L811.019 617.42L811.494 617.834L811.968 618.278L812.443 618.753L812.917 619.259L813.392 619.795L813.866 620.36L814.341 620.954L814.815 621.576L815.29 622.226L815.764 622.904L816.239 623.608L816.713 624.338L817.188 625.093L817.662 625.874L818.137 626.678L818.611 627.505L819.086 628.355L819.561 629.226L820.035 630.119L820.51 631.031L820.984 631.963L821.459 632.914L821.933 633.882L822.408 634.866L822.882 635.867L823.357 636.883L823.831 637.912L824.306 638.955L824.78 640.01L825.255 641.076L825.729 642.153L826.204 643.239L826.678 644.333L827.153 645.434L827.627 646.542L828.102 647.656L828.576 648.773L829.051 649.894L829.525 651.017L830 652.142" stroke="#323F59" stroke-opacity="0.6"/>
<defs>
<filter id="filter0_f" x="0.730225" y="220.196" width="682.947" height="670.621" filterUnits="userSpaceOnUse" color-interpolation-filters="sRGB">
<feFlood flood-opacity="0" result="BackgroundImageFix"/>
<feBlend mode="normal" in="SourceGraphic" in2="BackgroundImageFix" result="shape"/>
<feGaussianBlur stdDeviation="100" result="effect1_foregroundBlur"/>
</filter>
<filter id="filter1_f" x="301.868" y="-56.6101" width="710.465" height="696.94" filterUnits="userSpaceOnUse" color-interpolation-filters="sRGB">
<feFlood flood-opacity="0" result="BackgroundImageFix"/>
<feBlend mode="normal" in="SourceGraphic" in2="BackgroundImageFix" result="shape"/>
<feGaussianBlur stdDeviation="100" result="effect1_foregroundBlur"/>
</filter>
<filter id="filter2_f" x="367.764" y="278.748" width="625.135" height="615.327" filterUnits="userSpaceOnUse" color-interpolation-filters="sRGB">
<feFlood flood-opacity="0" result="BackgroundImageFix"/>
<feBlend mode="normal" in="SourceGraphic" in2="BackgroundImageFix" result="shape"/>
<feGaussianBlur stdDeviation="100" result="effect1_foregroundBlur"/>
</filter>
</defs>
</svg>
