<?xml version="1.0" encoding="UTF-8"?>
<svg xmlns="http://www.w3.org/2000/svg" xmlns:xlink="http://www.w3.org/1999/xlink" width="115px" height="106px" viewBox="0 0 115 106" version="1.1">
<g id="surface1">
<path style="fill:none;stroke-width:1;stroke-linecap:butt;stroke-linejoin:miter;stroke:rgb(74.901961%,24.705882%,43.137255%);stroke-opacity:0.301961;stroke-miterlimit:4;" d="M 59.835012 58.688384 L 59.867085 58.748084 L 59.923211 58.867482 L 59.951275 58.931162 L 59.979338 58.990861 L 60.003392 59.05454 L 60.031456 59.118219 L 60.05551 59.181899 L 60.079564 59.249558 L 60.127673 59.376916 L 60.147718 59.444575 L 60.171772 59.512235 L 60.251953 59.782871 L 60.267989 59.854511 L 60.284025 59.92217 L 60.304071 59.993809 L 60.320107 60.061468 L 60.332134 60.133107 L 60.34817 60.204746 L 60.372225 60.348025 L 60.384252 60.423644 L 60.396279 60.495283 L 60.408306 60.570902 L 60.416324 60.642541 L 60.43236 60.793779 L 60.440378 60.865419 L 60.444387 60.941038 L 60.452405 61.016657 L 60.456414 61.096256 L 60.460424 61.171875 L 60.460424 61.247494 L 60.464433 61.323113 L 60.464433 61.55793 L 60.460424 61.63355 L 60.460424 61.713149 L 60.452405 61.872347 L 60.444387 61.947966 L 60.440378 62.027565 L 60.416324 62.266362 L 60.404297 62.349941 L 60.356188 62.668337 L 60.340152 62.747936 L 60.324116 62.831515 L 60.292044 62.990713 L 60.271998 63.074292 L 60.231908 63.233491 L 60.211863 63.31707 L 60.187808 63.396669 L 60.163754 63.480248 L 60.1397 63.559847 L 60.111637 63.639446 L 60.087582 63.723025 L 60.031456 63.882223 L 60.003392 63.965802 L 59.939248 64.125 L 59.907175 64.208579 L 59.875103 64.288178 L 59.766859 64.526975 L 59.730777 64.610554 L 59.610506 64.849351 L 59.566406 64.924971 L 59.526316 65.00457 L 59.438117 65.163768 L 59.390008 65.243367 L 59.345909 65.318986 L 59.2978 65.398585 L 59.249692 65.474204 L 59.197574 65.549823 L 59.149465 65.629422 L 59.04523 65.78066 L 58.989104 65.856279 L 58.936986 65.931899 L 58.824733 66.083137 L 58.764597 66.154776 L 58.70847 66.230395 L 58.648335 66.302034 L 58.588199 66.377653 L 58.524054 66.449292 L 58.463919 66.520932 L 58.335629 66.66421 L 58.267475 66.731869 L 58.203331 66.803508 L 58.135177 66.875147 L 57.998869 67.010466 L 57.782381 67.213443 L 57.710218 67.277123 L 57.638055 67.344782 L 57.333368 67.599499 L 57.253187 67.659198 L 57.173006 67.722877 L 57.012644 67.842276 L 56.928454 67.901975 L 56.848273 67.961675 L 56.764083 68.017394 L 56.679893 68.077093 L 56.591694 68.132812 L 56.507504 68.188532 L 56.419305 68.244251 L 56.331106 68.295991 L 56.242907 68.35171 L 56.150699 68.403449 L 56.0625 68.455189 L 55.970292 68.502948 L 55.878084 68.554688 L 55.693668 68.650206 L 55.501234 68.745725 L 55.212582 68.877064 L 55.112356 68.920843 L 55.016139 68.960643 L 54.915913 69.004422 L 54.815687 69.044222 L 54.715461 69.080041 L 54.611225 69.119841 L 54.510999 69.15566 L 54.302529 69.2273 L 53.989823 69.322818 L 53.881579 69.354658 L 53.777344 69.382518 L 53.452611 69.466097 L 53.236123 69.513856 L 53.123869 69.537736 L 53.011616 69.557636 L 52.903372 69.581515 L 52.791118 69.597435 L 52.678865 69.617335 L 52.454359 69.649175 L 52.338096 69.665094 L 52.225843 69.681014 L 52.11359 69.692954 L 51.997327 69.700914 L 51.881065 69.712854 L 51.532278 69.736733 L 51.183491 69.748673 L 50.830695 69.748673 L 50.710424 69.744693 L 50.594161 69.740713 L 50.353618 69.732754 L 50.233347 69.724794 L 50.117085 69.712854 L 49.996813 69.704894 L 49.756271 69.681014 L 49.635999 69.665094 L 49.515728 69.653154 L 49.395456 69.633255 L 49.275185 69.617335 L 49.034642 69.577535 L 48.910362 69.553656 L 48.79009 69.533756 L 48.669819 69.505896 L 48.549548 69.482017 L 48.309005 69.426297 L 48.184725 69.394458 L 47.82391 69.298939 L 47.583368 69.2273 L 47.222553 69.107901 L 46.861739 68.976562 L 46.745477 68.928803 L 46.504934 68.833284 L 46.388672 68.781545 L 46.2684 68.729805 L 46.152138 68.678066 L 46.031867 68.622347 L 45.799342 68.510908 L 45.450555 68.33181 L 45.101768 68.140772 L 44.989515 68.073113 L 44.873252 68.005454 L 44.424239 67.718897 L 44.311986 67.643278 L 44.203742 67.567659 L 44.091488 67.49204 L 43.983244 67.412441 L 43.870991 67.332842 L 43.654502 67.165684 L 43.550267 67.082105 L 43.442023 66.998526 L 43.337788 66.910967 L 43.229544 66.823408 L 43.125308 66.735849 L 43.021073 66.64431 L 42.920847 66.552771 L 42.816612 66.457252 L 42.716386 66.365713 L 42.61616 66.270195 L 42.515933 66.170696 L 42.415707 66.075177 L 42.31949 65.975678 L 42.219264 65.876179 L 42.02683 65.669222 L 41.934622 65.565743 L 41.838405 65.458284 L 41.746197 65.354805 L 41.653988 65.247347 L 41.56178 65.135908 L 41.473581 65.024469 L 41.381373 64.913031 L 41.293174 64.801592 L 41.208984 64.690153 L 41.120785 64.574735 L 41.036595 64.459316 L 40.952405 64.339917 L 40.868215 64.224499 L 40.784025 64.1051 L 40.703845 63.981722 L 40.623664 63.862323 L 40.547492 63.738945 L 40.467311 63.615566 L 40.391139 63.492188 L 40.314967 63.364829 L 40.098479 62.982754 L 40.026316 62.851415 L 39.958162 62.724057 L 39.890008 62.588738 L 39.753701 62.326061 L 39.689556 62.190743 L 39.62942 62.055425 L 39.565275 61.916126 L 39.50514 61.780808 L 39.445004 61.641509 L 39.276624 61.223614 L 39.220498 61.080336 L 39.116262 60.793779 L 39.020045 60.507223 L 38.971937 60.359965 L 38.839638 59.91819 L 38.799548 59.770932 L 38.759457 59.619693 L 38.719367 59.472435 L 38.647204 59.169959 L 38.615132 59.014741 L 38.550987 58.712264 L 38.466797 58.24661 L 38.418688 57.936173 L 38.398643 57.780955 L 38.378598 57.621757 L 38.358553 57.466539 L 38.342516 57.307341 L 38.330489 57.148143 L 38.314453 56.988945 L 38.302426 56.829746 L 38.294408 56.670548 L 38.282381 56.51135 L 38.278372 56.348172 L 38.270354 56.188974 L 38.266345 56.025796 L 38.266345 55.540242 L 38.270354 55.377064 L 38.274363 55.217866 L 38.298417 54.728331 L 38.310444 54.561173 L 38.322471 54.397995 L 38.354544 54.071639 L 38.374589 53.908461 L 38.394634 53.741303 L 38.414679 53.578125 L 38.462788 53.251769 L 38.490851 53.084611 L 38.518914 52.921433 L 38.550987 52.758255 L 38.583059 52.591097 L 38.615132 52.427919 L 38.651213 52.264741 L 38.691303 52.101562 L 38.727385 51.934404 L 38.771484 51.771226 L 38.811575 51.608048 L 38.855674 51.44487 L 39 50.955336 L 39.104235 50.62898 L 39.160362 50.469782 L 39.216488 50.306604 L 39.276624 50.143426 L 39.33676 49.984228 L 39.400905 49.82105 L 39.46104 49.661851 L 39.665502 49.184257 L 39.88199 48.706663 L 39.958162 48.551445 L 40.038343 48.392246 L 40.198705 48.08181 L 40.367085 47.771374 L 40.451275 47.620136 L 40.539474 47.464917 L 40.816098 47.011203 L 41.008532 46.708726 L 41.104749 46.561468 L 41.204975 46.41421 L 41.517681 45.972435 L 41.621916 45.829157 L 41.734169 45.685879 L 41.842414 45.5426 L 42.06692 45.256044 L 42.415707 44.838149 L 42.535979 44.70283 L 42.660259 44.567512 L 42.78053 44.432193 L 42.904811 44.296875 L 43.0331 44.161557 L 43.289679 43.89888 L 43.421978 43.771521 L 43.554276 43.640183 L 43.686575 43.512824 L 43.822882 43.389446 L 43.95919 43.262087 L 44.239823 43.01533 L 44.38014 42.895932 L 44.813117 42.537736 L 45.109786 42.306899 L 45.258121 42.19546 L 45.410465 42.080041 L 45.562808 41.972583 L 45.715152 41.861144 L 46.027858 41.646226 L 46.508943 41.33579 L 46.669305 41.236291 L 46.833676 41.136792 L 46.998047 41.041274 L 47.162418 40.941775 L 47.330798 40.850236 L 47.499178 40.754717 L 47.667558 40.663178 L 48.184725 40.400501 L 48.357113 40.316922 L 48.533512 40.233343 L 48.70991 40.153744 L 48.886308 40.070165 L 49.066715 39.994546 L 49.243113 39.918927 L 49.42352 39.843308 L 49.607936 39.771669 L 49.788343 39.700029 L 49.972759 39.62839 L 50.157175 39.560731 L 50.3456 39.497052 L 50.530016 39.433373 L 50.718442 39.369693 L 50.906867 39.309994 L 51.095292 39.254275 L 51.283717 39.194575 L 51.476151 39.142836 L 51.668586 39.087117 L 51.86102 39.039357 L 52.053454 38.987618 L 52.249897 38.939858 L 52.442331 38.896079 L 52.638775 38.8523 L 53.031661 38.7727 L 53.228104 38.736881 L 53.629009 38.665242 L 53.825452 38.637382 L 54.025905 38.605542 L 54.226357 38.577683 L 54.430818 38.553803 L 54.631271 38.529923 L 54.831723 38.510024 L 55.036184 38.490124 L 55.445107 38.458284 L 55.85403 38.434404 L 56.262952 38.418485 L 56.471423 38.414505 L 56.675884 38.410525 L 57.088816 38.410525 L 57.297286 38.414505 L 57.501748 38.422465 L 57.918688 38.438384 L 58.127159 38.450324 L 58.5441 38.482164 L 58.96104 38.521963 L 59.377981 38.569723 L 59.586451 38.597583 L 60.211863 38.693101 L 60.420333 38.728921 L 60.837274 38.80852 L 61.254215 38.896079 L 61.458676 38.943838 L 61.667146 38.991598 L 61.875617 39.043337 L 62.084087 39.099057 L 62.288549 39.154776 L 62.497019 39.210495 L 62.70148 39.270195 L 62.905942 39.333874 L 63.114412 39.397553 L 63.523335 39.532871 L 63.727796 39.604511 L 63.932257 39.68013 L 64.13271 39.755749 L 64.337171 39.831368 L 64.537623 39.910967 L 64.742085 39.994546 L 64.942537 40.078125 L 65.343442 40.253243 L 65.543894 40.344782 L 65.740337 40.436321 L 65.940789 40.53184 L 66.137233 40.627358 L 66.333676 40.726857 L 66.530119 40.830336 L 66.722553 40.933815 L 66.918997 41.037294 L 67.111431 41.144752 L 67.496299 41.36763 L 67.684725 41.483048 L 67.877159 41.598467 L 68.254009 41.837264 L 68.438425 41.960643 L 68.62685 42.084021 L 68.995683 42.338738 L 69.17609 42.470077 L 69.360506 42.601415 L 69.540913 42.736733 L 69.72132 42.876032 L 69.897718 43.01135 L 70.426912 43.441185 L 70.77169 43.735702 L 70.944079 43.88694 L 71.112459 44.038178 L 71.280839 44.193396 L 71.44521 44.348614 L 71.61359 44.507812 L 71.777961 44.667011 L 72.098684 44.993367 L 72.419408 45.327683 L 72.575761 45.494841 L 72.728104 45.665979 L 72.884457 45.841097 L 73.036801 46.016215 L 73.185136 46.191333 L 73.481805 46.549528 L 73.914782 47.098762 L 74.055099 47.28582 L 74.195415 47.476857 L 74.331723 47.663915 L 74.464021 47.858933 L 74.600329 48.049971 L 74.732627 48.244988 L 74.860917 48.443986 L 74.989206 48.639004 L 75.113487 48.838001 L 75.362048 49.243956 L 75.482319 49.446934 L 75.60259 49.653892 L 75.718853 49.860849 L 75.831106 50.067807 L 75.947368 50.278744 L 76.055613 50.489682 L 76.163857 50.704599 L 76.272101 50.915537 L 76.376336 51.130454 L 76.480572 51.349351 L 76.580798 51.568249 L 76.773232 52.006044 L 76.869449 52.228921 L 76.961657 52.451798 L 77.049856 52.674676 L 77.138055 52.901533 L 77.306435 53.355248 L 77.386616 53.586085 L 77.466797 53.812942 L 77.542969 54.043779 L 77.619141 54.278597 L 77.691303 54.509434 L 77.827611 54.979068 L 77.891756 55.213886 L 77.9559 55.452683 L 78.076172 55.930277 L 78.132299 56.169074 L 78.184416 56.407871 L 78.236534 56.650649 L 78.332751 57.136203 L 78.37685 57.37898 L 78.416941 57.621757 L 78.457031 57.868514 L 78.493113 58.115271 L 78.58933 58.855542 L 78.613384 59.1023 L 78.637438 59.353037 L 78.661493 59.599794 L 78.681538 59.850531 L 78.71361 60.352005 L 78.725637 60.602742 L 78.733655 60.853479 L 78.741674 61.108196 L 78.745683 61.358933 L 78.745683 61.864387 L 78.741674 62.119104 L 78.737664 62.369841 L 78.725637 62.624558 L 78.717619 62.879275 L 78.685547 63.388709 L 78.665502 63.643426 L 78.645456 63.894163 L 78.621402 64.14888 L 78.565275 64.658314 L 78.533203 64.913031 L 78.46104 65.422465 L 78.380859 65.931899 L 78.33676 66.186616 L 78.288651 66.437353 L 78.184416 66.946787 L 78.128289 67.197524 L 78.072163 67.452241 L 78.008018 67.702978 L 77.947882 67.957695 L 77.811575 68.459169 L 77.667249 68.960643 L 77.591077 69.21138 L 77.510896 69.462117 L 77.430715 69.708874 L 77.346525 69.959611 L 77.170127 70.453125 L 77.077919 70.699882 L 76.885485 71.193396 L 76.785259 71.436173 L 76.576789 71.921728 L 76.3603 72.407282 L 76.248047 72.646079 L 76.015522 73.123673 L 75.895251 73.362471 L 75.77097 73.601268 L 75.64669 73.836085 L 75.5184 74.070902 L 75.386102 74.305719 L 75.253803 74.536557 L 74.981188 74.998231 L 74.840872 75.229068 L 74.55222 75.682783 L 74.403886 75.90964 L 74.255551 76.132518 L 74.103207 76.355395 L 73.946854 76.578272 L 73.790502 76.79717 L 73.469778 77.234965 L 73.301398 77.449882 L 73.137027 77.6648 L 72.968647 77.879717 L 72.796258 78.090654 L 72.61986 78.301592 L 72.447471 78.50855 L 72.086657 78.922465 L 71.717825 79.32842 L 71.340975 79.726415 L 71.14854 79.925413 L 70.956106 80.12043 L 70.759663 80.315448 L 70.358758 80.697524 L 70.158306 80.884581 L 69.949836 81.071639 L 69.745374 81.254717 L 69.536904 81.437795 L 69.111945 81.795991 L 68.895456 81.975088 L 68.678968 82.146226 L 68.45847 82.321344 L 68.237973 82.492482 L 68.017475 82.65964 L 67.792969 82.826798 L 67.335938 83.153154 L 66.870888 83.471551 L 66.638363 83.626769 L 66.165296 83.929245 L 65.924753 84.080483 L 65.684211 84.227742 L 65.439659 84.37102 L 65.195107 84.510318 L 64.950555 84.653597 L 64.701994 84.788915 L 64.449424 84.924233 L 64.200863 85.055572 L 63.948294 85.18691 L 63.691715 85.314269 L 63.178557 85.561026 L 62.917969 85.684404 L 62.396793 85.915242 L 61.867599 86.138119 L 61.603002 86.245578 L 61.065789 86.452535 L 60.797183 86.552034 L 60.524568 86.651533 L 60.251953 86.743072 L 59.975329 86.834611 L 59.702714 86.92615 L 59.149465 87.093308 L 58.868832 87.176887 L 58.592208 87.252506 L 58.311575 87.328125 L 58.026933 87.403744 L 57.746299 87.471403 L 57.461657 87.539062 L 57.177015 87.602742 L 56.892373 87.662441 L 56.603721 87.72214 L 56.319079 87.77786 L 55.741776 87.881338 L 55.449116 87.929098 L 55.160465 87.972877 L 54.867804 88.012677 L 54.579153 88.052476 L 54.286493 88.088296 L 53.989823 88.120136 L 53.404502 88.175855 L 53.107833 88.199735 L 52.811164 88.219634 L 52.518503 88.239534 L 51.925164 88.263414 L 51.624486 88.275354 L 51.031147 88.283314 L 50.730469 88.283314 L 50.433799 88.279334 L 50.133121 88.271374 L 49.836451 88.263414 L 49.535773 88.251474 L 49.239104 88.235554 L 48.637747 88.195755 L 48.337068 88.171875 L 48.040399 88.144015 L 47.439042 88.080336 L 47.138363 88.040537 L 46.841694 88.000737 L 46.240337 87.913178 L 45.943668 87.865419 L 45.642989 87.809699 L 45.34632 87.75796 L 45.045641 87.698261 L 44.452303 87.570902 L 44.155633 87.503243 L 43.562294 87.359965 L 43.265625 87.284346 L 42.968956 87.204746 L 42.676295 87.121167 L 42.379626 87.033608 L 42.086965 86.94605 L 41.794305 86.854511 L 41.501645 86.758992 L 41.208984 86.659493 L 40.920333 86.559994 L 40.627673 86.452535 L 40.05037 86.237618 L 39.761719 86.122199 L 39.477076 86.006781 L 39.188425 85.887382 L 38.619141 85.640625 L 38.338507 85.509287 L 38.053865 85.377948 L 37.773232 85.24661 L 37.492599 85.107311 L 37.215975 84.968013 L 36.93935 84.824735 L 36.386102 84.530218 L 36.113487 84.37898 L 35.840872 84.223762 L 35.568257 84.064564 L 35.29965 83.905366 L 35.031044 83.738208 L 34.762438 83.575029 L 34.233244 83.232754 L 33.968647 83.057636 L 33.447471 82.69944 L 33.190892 82.516362 L 32.934313 82.329304 L 32.677734 82.138267 L 32.425164 81.947229 L 32.176604 81.752211 L 31.924034 81.557193 L 31.675473 81.358196 L 31.430921 81.155218 L 31.186369 80.948261 L 30.945826 80.741303 L 30.464741 80.319428 L 30.228207 80.100531 L 29.991674 79.885613 L 29.759149 79.662736 L 29.530633 79.439858 L 29.073602 78.986144 L 28.849095 78.755307 L 28.4081 78.285672 L 28.187603 78.046875 L 27.975123 77.808078 L 27.758635 77.561321 L 27.550164 77.318544 L 27.337685 77.071787 L 27.133224 76.82105 L 26.724301 76.311616 L 26.527858 76.056899 L 26.327405 75.798202 L 25.942537 75.272848 L 25.750103 75.006191 L 25.565687 74.735554 L 25.381271 74.468897 L 25.196854 74.194281 L 25.016447 73.919664 L 24.840049 73.645047 L 24.66766 73.36645 L 24.495271 73.083874 L 24.326891 72.805277 L 24.158512 72.518721 L 23.994141 72.232164 L 23.833779 71.945607 L 23.521073 71.364534 L 23.368729 71.070018 L 23.220395 70.775501 L 23.07206 70.477005 L 22.927734 70.178508 L 22.647101 69.573555 L 22.514803 69.271079 L 22.250206 68.658166 L 22.001645 68.037294 L 21.881373 67.726857 L 21.648849 67.098025 L 21.536595 66.783608 L 21.428351 66.465212 L 21.324116 66.146816 L 21.22389 65.82444 L 21.123664 65.506044 L 21.027447 65.179688 L 20.935238 64.857311 L 20.847039 64.530955 L 20.67866 63.878243 L 20.598479 63.547907 L 20.522307 63.221551 L 20.450144 62.887235 L 20.377981 62.556899 L 20.313836 62.222583 L 20.249692 61.892246 L 20.189556 61.55395 L 20.077303 60.885318 L 19.981086 60.208726 L 19.900905 59.532134 L 19.860814 59.189858 L 19.828742 58.847583 L 19.800678 58.509287 L 19.772615 58.167011 L 19.732525 57.482459 L 19.716488 57.136203 L 19.704461 56.793927 L 19.692434 56.447671 L 19.688425 56.105395 L 19.684416 55.759139 L 19.692434 55.066627 L 19.700452 54.720371 L 19.724507 54.02786 L 19.744552 53.681604 L 19.79266 52.989092 L 19.820724 52.642836 L 19.852796 52.29658 L 19.892887 51.950324 L 19.928968 51.604068 L 19.973067 51.257812 L 20.069285 50.565301 L 20.125411 50.219045 L 20.181538 49.876769 L 20.241674 49.530513 L 20.305818 49.184257 L 20.373972 48.841981 L 20.446135 48.495725 L 20.598479 47.811173 L 20.766859 47.126621 L 20.855058 46.784346 L 20.947266 46.44207 L 21.043483 46.103774 L 21.143709 45.765478 L 21.352179 45.088886 L 21.576686 44.412294 L 21.692948 44.077978 L 21.81322 43.743662 L 21.9375 43.409346 L 22.194079 42.748673 L 22.466694 42.088001 L 22.607011 41.757665 L 22.751336 41.431309 L 22.899671 41.104953 L 23.204359 40.4602 L 23.525082 39.815448 L 23.689453 39.497052 L 23.857833 39.178656 L 24.030222 38.860259 L 24.202611 38.545843 L 24.379009 38.235407 L 24.563425 37.920991 L 24.747841 37.610554 L 25.124692 36.997642 L 25.321135 36.691185 L 25.517578 36.388709 L 25.71803 36.086232 L 25.922492 35.783756 L 26.126953 35.489239 L 26.339433 35.190743 L 26.551912 34.896226 L 26.7684 34.60569 L 27.209396 34.024617 L 27.433902 33.73806 L 27.662418 33.455483 L 27.894942 33.172907 L 28.131476 32.89033 L 28.36801 32.611733 L 28.608553 32.337117 L 28.853104 32.0625 L 29.350226 31.521226 L 29.602796 31.25457 L 29.855366 30.991893 L 30.115954 30.729216 L 30.376542 30.470519 L 30.641139 30.211822 L 30.905736 29.957105 L 31.174342 29.706368 L 31.446957 29.455631 L 31.723581 29.208874 L 32.000206 28.966097 L 32.280839 28.72332 L 32.561472 28.484522 L 32.850123 28.245725 L 33.134766 28.010908 L 33.427426 27.780071 L 33.720086 27.553213 L 34.016756 27.326356 L 34.313425 27.103479 L 34.614104 26.884581 L 34.918791 26.665684 L 35.223479 26.450767 L 35.532175 26.239829 L 35.840872 26.032871 L 36.153577 25.825914 L 36.470292 25.626916 L 36.787007 25.423939 L 37.103721 25.228921 L 37.424445 25.037883 L 37.749178 24.846846 L 38.07391 24.659788 L 38.402652 24.47671 L 38.735403 24.293632 L 39.064145 24.118514 L 39.400905 23.943396 L 39.737664 23.772258 L 40.074424 23.6051 L 40.415193 23.437942 L 40.755962 23.278744 L 41.10074 23.119546 L 41.445518 22.964328 L 41.794305 22.81309 L 42.143092 22.665831 L 42.491879 22.522553 L 42.844675 22.383255 L 43.20148 22.243956 L 43.558285 22.108638 L 44.271896 21.853921 L 44.63271 21.730542 L 44.997533 21.611144 L 45.358347 21.491745 L 45.72317 21.380307 L 46.460835 21.165389 L 47.198499 20.966392 L 47.57134 20.870873 L 47.944182 20.779334 L 48.317023 20.695755 L 48.693873 20.612176 L 49.447574 20.452978 L 49.824424 20.381338 L 50.205284 20.313679 L 50.586143 20.25 L 51.347862 20.130601 L 51.73273 20.078862 L 52.117599 20.031103 L 52.498458 19.983343 L 52.887336 19.943544 L 53.272204 19.903744 L 53.657072 19.871904 L 54.04595 19.840065 L 54.434827 19.812205 L 55.212582 19.772406 L 55.990337 19.748526 L 56.379215 19.740566 L 56.772101 19.736586 L 57.160979 19.740566 L 57.553865 19.744546 L 57.946752 19.752506 L 58.335629 19.768426 L 58.728516 19.784346 L 59.121402 19.804245 L 59.514289 19.828125 L 59.903166 19.859965 L 60.296053 19.891804 L 60.688939 19.927624 L 61.081826 19.971403 L 61.470703 20.015183 L 61.86359 20.062942 L 62.252467 20.114682 L 62.645354 20.174381 L 63.034231 20.23408 L 63.427118 20.297759 L 63.815995 20.365419 L 64.59375 20.516657 L 64.982627 20.596256 L 65.760382 20.771374 L 66.145251 20.862913 L 66.534128 20.958432 L 67.303865 21.165389 L 67.688734 21.272848 L 68.069593 21.384287 L 68.450452 21.503685 L 68.835321 21.623084 L 69.21618 21.746462 L 69.59303 21.873821 L 69.97389 22.005159 L 70.72759 22.283756 L 71.100432 22.427034 L 71.473273 22.574292 L 71.846114 22.725531 L 72.218956 22.880749 L 72.587788 23.039947 L 72.95662 23.203125 L 73.325452 23.370283 L 73.690275 23.541421 L 74.419922 23.891657 L 74.780736 24.074735 L 75.14155 24.261792 L 75.85516 24.643868 L 76.211965 24.842866 L 76.564762 25.041863 L 76.913549 25.248821 L 77.266345 25.455778 L 77.611123 25.666716 L 77.95991 25.881633 L 78.304688 26.100531 L 78.645456 26.323408 L 78.986225 26.550265 L 79.322985 26.781103 L 79.659745 27.01592 L 79.992496 27.250737 L 80.325247 27.493514 L 80.653988 27.736291 L 80.978721 27.983048 L 81.307463 28.233785 L 81.628187 28.488502 L 81.94891 28.747199 L 82.58234 29.272553 L 82.895045 29.53921 L 83.512438 30.088443 L 84.121813 30.645637 L 84.422492 30.932193 L 84.719161 31.21875 L 85.015831 31.509287 L 85.308491 31.803803 L 85.597142 32.1023 L 85.881785 32.400796 L 86.166427 32.703272 L 86.44706 33.009729 L 86.727693 33.320165 L 87.272924 33.948998 L 87.54153 34.267394 L 87.810136 34.58977 L 88.070724 34.912146 L 88.331312 35.238502 L 88.587891 35.568838 L 88.84447 35.903154 L 89.09303 36.237471 L 89.341591 36.575767 L 89.586143 36.918042 L 89.826686 37.260318 L 90.06322 37.606574 L 90.299753 37.95681 L 90.532278 38.311026 L 90.981291 39.019458 L 91.201789 39.377653 L 91.422286 39.739829 L 91.634766 40.105985 L 91.843236 40.47214 L 92.051706 40.842276 L 92.256168 41.212412 L 92.649054 41.960643 L 92.841488 42.338738 L 93.218339 43.102889 L 93.398746 43.484965 L 93.575144 43.87102 L 93.751542 44.261055 L 93.919922 44.651091 L 94.248664 45.439121 L 94.405016 45.833137 L 94.561369 46.231132 L 94.713713 46.633107 L 95.002364 47.437058 L 95.142681 47.843013 L 95.274979 48.248968 L 95.407278 48.658903 L 95.535567 49.068838 L 95.655839 49.478774 L 95.77611 49.892689 L 95.892373 50.306604 L 96.108861 51.142394 L 96.213096 51.560289 L 96.309313 51.982164 L 96.40553 52.400059 L 96.493729 52.825914 L 96.577919 53.247789 L 96.662109 53.673644 L 96.738281 54.099499 L 96.810444 54.525354 L 96.882607 54.955189 L 96.946752 55.381044 L 97.006887 55.810879 L 97.063014 56.244693 L 97.115132 56.674528 L 97.16324 57.108343 L 97.20734 57.542158 L 97.279502 58.409788 L 97.311575 58.843603 L 97.335629 59.281397 L 97.359683 59.715212 L 97.37572 60.153007 L 97.387747 60.590802 L 97.395765 61.028597 L 97.399774 61.466392 L 97.399774 61.904186 L 97.395765 62.341981 L 97.387747 62.783756 L 97.37572 63.221551 L 97.355674 63.659346 L 97.335629 64.10112 L 97.307566 64.538915 L 97.275493 64.97671 L 97.239412 65.418485 L 97.199322 65.856279 L 97.155222 66.294074 L 97.107113 66.735849 L 97.054996 67.173644 L 96.998869 67.611439 L 96.87058 68.487028 L 96.798417 68.924823 L 96.722245 69.362618 L 96.642064 69.796433 L 96.557874 70.234228 L 96.469675 70.668042 L 96.377467 71.105837 L 96.177015 71.973467 L 96.07278 72.403302 L 95.960526 72.837117 L 95.844264 73.266952 L 95.603721 74.126621 L 95.475432 74.552476 L 95.339124 74.982311 L 95.202817 75.408166 L 95.0625 75.834021 L 94.918174 76.255896 L 94.613487 77.099646 L 94.453125 77.521521 L 94.292763 77.939416 L 94.124383 78.357311 L 93.951994 78.771226 L 93.775596 79.185142 L 93.595189 79.599057 L 93.410773 80.008992 L 93.222348 80.418927 L 93.029914 80.828862 L 92.83347 81.234817 L 92.633018 81.636792 L 92.428557 82.042748 L 92.216077 82.440743 L 92.003598 82.842718 L 91.787109 83.236733 L 91.562603 83.634729 L 91.338096 84.028744 L 90.873047 84.808815 L 90.636513 85.19487 L 90.391961 85.576946 L 90.14741 85.963001 L 89.64227 86.719192 L 89.385691 87.097288 L 89.121094 87.467423 L 88.856497 87.841539 L 88.311266 88.57385 L 88.034642 88.940006 L 87.754009 89.298202 L 87.469367 89.656397 L 87.180715 90.014593 L 86.888055 90.364829 L 86.591386 90.715065 L 86.290707 91.065301 L 85.98602 91.407577 L 85.677323 91.749853 L 85.368627 92.088149 L 85.051912 92.426445 L 84.735197 92.756781 L 84.414474 93.087117 L 84.089741 93.413473 L 83.760999 93.739829 L 83.428248 94.058225 L 83.091488 94.376621 L 82.754729 94.691038 L 82.409951 95.001474 L 82.065173 95.30793 L 81.716386 95.614387 L 81.36359 95.916863 L 81.010794 96.21536 L 80.649979 96.509876 L 80.289165 96.800413 L 79.924342 97.086969 L 79.186678 97.652123 L 78.813836 97.926739 L 78.436986 98.201356 L 78.056127 98.471993 L 77.671258 98.73865 L 77.28639 99.001327 L 76.897512 99.260024 L 76.504626 99.514741 L 76.111739 99.765478 L 75.714844 100.012235 L 75.313939 100.255012 L 74.913035 100.493809 L 74.508121 100.728626 L 74.099198 100.963443 L 73.690275 101.190301 L 73.277344 101.413178 L 72.864412 101.632075 L 72.443462 101.846993 L 72.026521 102.06191 L 71.601562 102.268868 L 71.176604 102.471846 L 70.751645 102.670843 L 70.322677 102.865861 L 69.8897 103.056899 L 69.456723 103.243956 L 68.582751 103.602152 L 68.141756 103.77727 L 67.259766 104.111586 L 66.810752 104.270784 L 66.365748 104.426002 L 65.916735 104.577241 L 65.463713 104.724499 L 65.010691 104.867777 L 64.557669 105.007075 L 64.100637 105.142394 L 63.643606 105.269752 L 63.182566 105.397111 L 62.721525 105.516509 L 62.260485 105.631928 L 61.795436 105.743367 L 61.330387 105.850825 L 60.865337 105.950324 L 60.396279 106.049823 L 59.92722 106.141362 L 59.458162 106.228921 L 58.985095 106.3125 L 58.512027 106.392099 L 57.565892 106.535377 L 57.088816 106.599057 L 56.611739 106.658756 L 56.134663 106.714475 L 55.18051 106.809994 L 54.699424 106.849794 L 54.218339 106.885613 L 53.737253 106.917453 L 53.256168 106.941333 L 52.293997 106.981132 L 51.323808 106.997052 L 50.842722 107.001032 L 50.357627 106.997052 L 49.872533 106.989092 L 49.387438 106.977152 L 48.906353 106.957252 L 48.421258 106.937353 L 47.936164 106.909493 L 47.451069 106.877653 L 46.48088 106.798054 L 45.995785 106.750295 L 45.510691 106.698555 L 45.029605 106.642836 L 44.544511 106.579157 L 44.063425 106.511498 L 43.578331 106.439858 L 43.097245 106.364239 L 42.61215 106.28464 L 42.131065 106.197081 L 41.649979 106.105542 L 41.172903 106.010024 L 40.691817 105.910525 L 40.214741 105.803066 L 39.733655 105.691627 L 39.256579 105.576209 L 38.783512 105.45681 L 38.306435 105.333432 L 37.833368 105.202093 L 37.3603 105.066775 L 36.887233 104.927476 L 36.414165 104.780218 L 35.945107 104.63296 L 35.476049 104.477742 L 35.010999 104.318544 L 34.54595 104.155366 L 34.0809 103.988208 L 33.615851 103.81309 L 33.154811 103.633992 L 32.693771 103.450914 L 32.236739 103.263856 L 31.779708 103.072818 L 31.322677 102.873821 L 30.869655 102.674823 L 30.416632 102.467866 L 29.967619 102.256928 L 29.518606 102.038031 L 29.073602 101.819133 L 28.628598 101.592276 L 28.187603 101.365419 L 27.746608 101.130601 L 27.309622 100.891804 L 26.872636 100.649027 L 26.439659 100.40227 L 26.006682 100.147553 L 25.577714 99.892836 L 25.152755 99.630159 L 24.727796 99.363502 L 23.885896 98.822229 L 23.468956 98.539652 L 23.056024 98.257075 L 22.643092 97.970519 L 22.234169 97.679982 L 21.424342 97.082989 L 21.023438 96.776533 L 20.626542 96.470077 L 20.229646 96.15566 L 19.83676 95.837264 L 19.447882 95.518868 L 19.063014 95.192512 L 18.678146 94.862176 L 18.297286 94.52786 L 17.920436 94.193544 L 17.547595 93.851268 L 17.174753 93.505012 L 16.445107 92.80454 L 16.084293 92.446344 L 15.727488 92.084169 L 15.374692 91.721993 L 15.021896 91.351857 L 14.677118 90.981722 L 14.33234 90.603626 L 13.991571 90.225531 L 13.654811 89.843455 L 13.32206 89.4574 L 12.993318 89.063384 L 12.668586 88.673349 L 12.347862 88.275354 L 12.031147 87.873379 L 11.718442 87.471403 L 11.405736 87.061468 L 11.101049 86.651533 L 10.80037 86.237618 L 10.499692 85.819723 L 10.207031 85.397848 L 9.91838 84.975973 L 9.629729 84.550118 L 9.349095 84.120283 L 9.072471 83.686468 L 8.799856 83.248673 L 8.53125 82.810879 L 8.266653 82.369104 L 8.006065 81.923349 L 7.749486 81.477594 L 7.496916 81.02388 L 7.248355 80.574145 L 7.003803 80.11645 L 6.76727 79.658756 L 6.530736 79.197081 L 6.30222 78.731427 L 6.077714 78.265772 L 5.857216 77.796138 L 5.640728 77.326504 L 5.428248 76.852889 L 5.019326 75.8977 L 4.822882 75.416126 L 4.630448 74.930572 L 4.442023 74.445018 L 4.257607 73.959463 L 4.081209 73.469929 L 3.904811 72.976415 L 3.736431 72.482901 L 3.57206 71.989387 L 3.415707 71.491893 L 3.259354 70.990419 L 3.11102 70.492925 L 2.966694 69.987471 L 2.826377 69.482017 L 2.694079 68.976562 L 2.56178 68.467129 L 2.4375 67.957695 L 2.321238 67.448261 L 2.204975 66.934847 L 2.096731 66.421433 L 1.992496 65.908019 L 1.89227 65.390625 L 1.800062 64.873231 L 1.711863 64.351857 L 1.627673 63.834463 L 1.547492 63.31309 L 1.475329 62.787736 L 1.407175 62.266362 L 1.34303 61.741008 L 1.286904 61.215654 L 1.234786 60.690301 L 1.186678 60.164947 L 1.146587 59.635613 L 1.110506 59.106279 L 1.078433 58.576946 L 1.05037 58.047612 L 1.030325 57.518278 L 1.014289 56.988945 L 1.006271 56.455631 L 0.998252 55.926297 L 1.002262 55.392983 L 1.006271 54.86365 L 1.018298 54.330336 L 1.034334 53.797022 L 1.054379 53.263709 L 1.082442 52.734375 L 1.114515 52.201061 L 1.194696 51.134434 L 1.242804 50.6051 L 1.298931 50.071787 L 1.359067 49.538473 L 1.423211 49.009139 L 1.491365 48.475825 L 1.567537 47.946492 L 1.647718 47.417158 L 1.731908 46.887824 L 1.824116 46.358491 L 1.920333 45.829157 L 2.024568 45.303803 L 2.132812 44.774469 L 2.245066 44.249116 L 2.361328 43.723762 L 2.485609 43.202388 L 2.613898 42.677034 L 2.746197 42.15566 L 2.886513 41.634287 L 3.030839 41.112913 L 3.179174 40.595519 L 3.335526 40.078125 L 3.495888 39.560731 L 3.660259 39.047317 L 3.832648 38.533903 L 4.009046 38.020489 L 4.189453 37.511055 L 4.377878 37.001621 L 4.566303 36.496167 L 4.762747 35.990713 L 4.967208 35.485259 L 5.171669 34.983785 L 5.384149 34.482311 L 5.825144 33.487323 L 6.05366 32.993809 L 6.286184 32.500295 L 6.522718 32.010761 L 6.76727 31.521226 L 7.011822 31.035672 L 7.264391 30.554098 L 7.785567 29.590949 L 8.054174 29.117335 L 8.326789 28.639741 L 8.603413 28.170106 L 8.884046 27.700472 L 9.172697 27.234817 L 9.465358 26.769163 L 9.762027 26.307488 L 10.062706 25.849794 L 10.367393 25.396079 L 10.680099 24.942364 L 10.992804 24.49263 L 11.313528 24.046875 L 11.638261 23.60112 L 11.967002 23.159346 L 12.303762 22.721551 L 12.640522 22.287736 L 13.330078 21.428066 L 13.682874 21.002211 L 14.039679 20.580336 L 14.400493 20.162441 L 14.765317 19.748526 L 15.134149 19.338591 L 15.510999 18.928656 L 15.88785 18.52668 L 16.268709 18.124705 L 16.657586 17.72671 L 17.046464 17.332695 L 17.840255 16.560584 L 18.245169 16.178508 L 18.650082 15.800413 L 19.063014 15.426297 L 19.475946 15.056162 L 19.892887 14.690006 L 20.317845 14.32783 L 20.742804 13.969634 L 21.175781 13.615419 L 21.608758 13.265183 L 22.045744 12.918927 L 22.486739 12.576651 L 22.931743 12.238355 L 23.380757 11.908019 L 23.833779 11.577683 L 24.286801 11.255307 L 25.208882 10.618514 L 25.67794 10.308078 L 26.146998 10.001621 L 27.093133 9.404629 L 27.574219 9.110112 L 28.055304 8.823555 L 28.540399 8.540979 L 29.029502 8.262382 L 29.518606 7.987765 L 30.015728 7.721108 L 30.51285 7.458432 L 31.009971 7.199735 L 31.515111 6.945018 L 32.020251 6.694281 L 32.5294 6.451504 L 33.038549 6.212706 L 33.555715 5.977889 L 34.068873 5.747052 L 34.590049 5.524175 L 35.111225 5.305277 L 35.632401 5.09434 L 36.161595 4.883402 L 36.690789 4.680425 L 37.219984 4.481427 L 37.753187 4.290389 L 38.290399 4.103331 L 38.827611 3.920254 L 39.364823 3.741156 L 39.906044 3.570018 L 40.451275 3.40286 L 40.996505 3.243662 L 41.541735 3.088443 L 42.090975 2.937205 L 42.644223 2.793927 L 43.197471 2.654629 L 43.75072 2.51931 L 44.303968 2.391952 L 44.861225 2.268573 L 45.422492 2.153154 L 45.983758 2.041716 L 46.545025 1.934257 L 47.106291 1.834758 L 47.671567 1.739239 L 48.236842 1.65168 L 48.802118 1.568101 L 49.940687 1.416863 L 51.079256 1.289505 L 52.225843 1.186026 L 52.799137 1.142246 L 53.37243 1.106427 L 53.945724 1.074587 L 54.519017 1.046728 L 55.09632 1.026828 L 55.673623 1.010908 L 56.250925 1.002948 L 56.824219 0.998968 L 57.401521 1.002948 L 57.978824 1.010908 L 58.560136 1.026828 L 59.137438 1.046728 L 59.714741 1.070607 L 60.292044 1.102447 L 61.446649 1.182046 L 62.023951 1.233785 L 62.601254 1.289505 L 63.178557 1.349204 L 63.755859 1.416863 L 64.333162 1.488502 L 64.906456 1.568101 L 65.483758 1.65168 L 66.057052 1.739239 L 66.630345 1.834758 L 67.203639 1.938237 L 67.776933 2.045696 L 68.350226 2.157134 L 68.919511 2.276533 L 69.488795 2.403892 L 70.05808 2.53523 L 70.627364 2.670548 L 71.19264 2.813827 L 71.757915 2.961085 L 72.323191 3.112323 L 72.888466 3.271521 L 73.449733 3.438679 L 74.010999 3.609817 L 74.568257 3.784935 L 75.125514 3.968013 L 75.682771 4.155071 L 76.23602 4.350088 L 76.789268 4.549086 L 77.338507 4.752064 L 77.887747 4.963001 L 78.436986 5.181899 L 78.982216 5.400796 L 80.064659 5.862471 L 80.60588 6.101268 L 81.143092 6.344045 L 81.676295 6.594782 L 82.209498 6.849499 L 82.738692 7.112176 L 83.267887 7.378833 L 83.793072 7.649469 L 84.318257 7.924086 L 84.835424 8.206663 L 85.3566 8.493219 L 85.869757 8.787736 L 86.382915 9.086232 L 86.892064 9.388709 L 87.401213 9.699145 L 87.902344 10.013561 L 88.403475 10.331958 L 88.904605 10.654334 L 89.397718 10.98467 L 89.890831 11.318986 L 90.379934 11.661262 L 90.865029 12.003538 L 91.346114 12.353774 L 91.8272 12.707989 L 92.304276 13.070165 L 92.777344 13.436321 L 93.246402 13.802476 L 93.711451 14.180572 L 94.172492 14.558667 L 94.633532 14.940743 L 95.086554 15.330778 L 95.539576 15.724794 L 95.984581 16.122789 L 96.429585 16.528744 L 96.87058 16.934699 L 97.303557 17.348614 L 97.736534 17.766509 L 98.165502 18.184404 L 98.590461 18.610259 L 99.424342 19.477889 L 99.837274 19.915684 L 100.647101 20.807193 L 101.043997 21.260908 L 101.440892 21.718603 L 101.82977 22.176297 L 102.218647 22.641952 L 102.599507 23.111586 L 102.976357 23.5852 L 103.345189 24.058815 L 103.714021 24.540389 L 104.078845 25.025943 L 104.43565 25.515478 L 104.788446 26.005012 L 105.137233 26.502506 L 105.482011 27.00398 L 105.82278 27.505454 L 106.15553 28.014888 L 106.484272 28.524322 L 106.809005 29.037736 L 107.129729 29.55513 L 107.442434 30.076504 L 107.751131 30.601857 L 108.055818 31.131191 L 108.356497 31.660525 L 108.649157 32.193838 L 108.937808 32.731132 L 109.218442 33.272406 L 109.499075 33.817659 L 109.77169 34.362913 L 110.036287 34.916126 L 110.300884 35.46536 L 110.557463 36.022553 L 110.806024 36.579746 L 111.054585 37.14092 L 111.527652 38.271226 L 111.756168 38.84434 L 111.980674 39.413473 L 112.197163 39.986586 L 112.409642 40.563679 L 112.818565 41.725825 L 113.010999 42.310879 L 113.199424 42.895932 L 113.38384 43.484965 L 113.564248 44.073998 L 113.901007 45.260024 L 114.061369 45.857017 L 114.213713 46.454009 L 114.362048 47.054982 L 114.506373 47.655955 L 114.642681 48.256928 L 114.77097 48.861881 L 114.895251 49.470814 L 115.015522 50.079746 L 115.127775 50.688679 L 115.232011 51.297612 L 115.332237 51.910525 L 115.428454 52.523438 L 115.516653 53.13635 L 115.596834 53.753243 L 115.673006 54.370136 L 115.745169 54.987028 L 115.86544 56.228774 L 115.917558 56.849646 L 115.961657 57.470519 L 116.001748 58.091392 " transform="matrix(0.974359,0,0,0.981481,0,0)"/>
</g>
</svg>
