<svg width="130" height="130" viewBox="0 0 130 130" fill="none" xmlns="http://www.w3.org/2000/svg">
<g clip-path="url(#clip0)">
<path d="M99.556 108.46H30.444C13.6306 108.46 0 94.83 0 78.0157C0 61.2013 13.6306 47.5717 30.444 47.5717H99.556C116.369 47.5717 130 61.2013 130 78.0157C130 94.83 116.369 108.46 99.556 108.46V108.46Z" fill="#E8899E"/>
<path d="M59.1988 47.5717H30.444C13.6306 47.5717 0 61.2013 0 78.0157C0 94.83 13.6306 108.46 30.444 108.46H62.9479C50.1852 91.1166 52.4257 64.0131 59.1988 47.5717Z" fill="#BF3F6E"/>
<path d="M50.08 78.0157C50.08 88.8602 41.2885 97.6517 30.4439 97.6517C19.5993 97.6517 10.8088 88.8602 10.8088 78.0157C10.8088 67.1711 19.5993 58.3796 30.4439 58.3796C41.2885 58.3796 50.08 67.1711 50.08 78.0157V78.0157Z" fill="#5C616B"/>
<path d="M119.191 78.0157C119.191 88.8602 110.401 97.6517 99.556 97.6517C88.7114 97.6517 79.9199 88.8602 79.9199 78.0157C79.9199 67.1711 88.7114 58.3796 99.556 58.3796C110.401 58.3796 119.191 67.1711 119.191 78.0157V78.0157Z" fill="#5C616B"/>
<path d="M93.9522 47.5717H84.7422V34.4073C84.7422 32.4137 83.1206 30.7921 81.127 30.7921H48.873C46.8794 30.7921 45.2578 32.4137 45.2578 34.4073V47.5717H36.0477V34.4073C36.0477 27.3356 41.8013 21.582 48.873 21.582H81.128C88.1987 21.582 93.9522 27.3356 93.9522 34.4073V47.5717Z" fill="#5C616B"/>
<path d="M83.0819 47.5717H46.9181L55.538 62.1356C56.7788 64.2303 59.0322 65.5157 61.4681 65.5157H68.5319C70.9678 65.5157 73.2212 64.2303 74.462 62.1356L83.0819 47.5717Z" fill="#EDA5C7"/>
<path d="M55.1522 61.482C56.1143 56.395 57.5167 51.655 59.1988 47.5717H46.9181L55.1522 61.482Z" fill="#EDA5C7" fill-opacity="0.3"/>
<path d="M71.3377 85.619H58.6623C57.9035 85.619 57.2876 85.0031 57.2876 84.2443V78.1049C57.2876 77.3462 57.9035 76.7303 58.6623 76.7303H71.3377C72.0965 76.7303 72.7124 77.3462 72.7124 78.1049V84.2443C72.7124 85.0031 72.0965 85.619 71.3377 85.619Z" fill="white"/>
<path d="M63.0957 76.7303H66.9043V85.619H63.0957V76.7303Z" fill="#5C616B"/>
<path d="M76.8056 98.5325H53.1943C51.5786 98.5325 50.2684 99.8437 50.2684 101.459V108.46H79.7325V101.459C79.7325 99.8437 78.4213 98.5325 76.8056 98.5325V98.5325Z" fill="#EDA5C7"/>
<path d="M28.9523 88.1432C28.4653 88.1432 27.9783 87.9567 27.6064 87.5848L22.9488 82.9272C22.2049 82.1843 22.2049 80.9782 22.9488 80.2344C23.6916 79.4905 24.8977 79.4905 25.6416 80.2344L30.2992 84.892C31.043 85.6358 31.043 86.8419 30.2992 87.5858C29.9272 87.9567 29.4402 88.1432 28.9523 88.1432Z" fill="#323F59"/>
<path d="M34.5074 73.005C34.0204 73.005 33.5334 72.8185 33.1615 72.4466L31.9574 71.2435C31.2136 70.4997 31.2146 69.2936 31.9574 68.5497C32.7013 67.8069 33.9074 67.8069 34.6512 68.5497L35.8543 69.7538C36.5982 70.4977 36.5982 71.7037 35.8543 72.4466C35.4824 72.8185 34.9954 73.005 34.5074 73.005Z" fill="#323F59"/>
<path d="M94.8816 88.4447C94.3946 88.4447 93.9066 88.2582 93.5357 87.8863L92.1173 86.468C91.3735 85.7241 91.3735 84.519 92.1173 83.7752C92.8612 83.0313 94.0663 83.0313 94.8101 83.7752L96.2284 85.1935C96.9723 85.9373 96.9723 87.1434 96.2284 87.8863C95.8565 88.2582 95.3685 88.4447 94.8816 88.4447Z" fill="#323F59"/>
<path d="M105.579 75.796C105.091 75.796 104.604 75.6095 104.232 75.2376L98.716 69.7211C97.9721 68.9772 97.9721 67.7721 98.716 67.0283C99.4598 66.2844 100.666 66.2844 101.409 67.0283L106.925 72.5448C107.669 73.2886 107.669 74.4937 106.925 75.2376C106.553 75.6095 106.066 75.796 105.579 75.796Z" fill="#323F59"/>
<path d="M53.1943 98.5325C51.5786 98.5325 50.2684 99.8437 50.2684 101.459V108.46H62.9479C60.7074 105.415 58.93 102.069 57.5573 98.5325H53.1943Z" fill="#EDA5C7" fill-opacity="0.3"/>
<path d="M36.0477 41.9064H45.2578V47.5717H36.0477V41.9064Z" fill="#323F59"/>
<path d="M84.7422 41.9064H93.9522V47.5717H84.7422V41.9064Z" fill="#323F59"/>
<path d="M108.247 42.4291C107.196 42.4291 106.343 41.5762 106.343 40.5248V33.1953C106.343 32.1429 107.196 31.291 108.247 31.291C109.3 31.291 110.152 32.1429 110.152 33.1953V40.5248C110.152 41.5762 109.3 42.4291 108.247 42.4291Z" fill="#E8899E"/>
<path d="M120.804 47.8633C120.316 47.8633 119.829 47.6778 119.457 47.3059C118.713 46.562 118.713 45.356 119.457 44.6121L124.342 39.7284C125.086 38.9845 126.291 38.9845 127.034 39.7284C127.778 40.4723 127.778 41.6773 127.034 42.4212L122.15 47.3059C121.778 47.6778 121.291 47.8633 120.804 47.8633V47.8633Z" fill="#EDA5C7"/>
<path d="M21.7527 42.4291C20.7004 42.4291 19.8484 41.5762 19.8484 40.5248V33.1953C19.8484 32.1429 20.7004 31.291 21.7527 31.291C22.804 31.291 23.657 32.1429 23.657 33.1953V40.5248C23.657 41.5762 22.804 42.4291 21.7527 42.4291Z" fill="#EDA5C7"/>
<path d="M9.19611 47.8633C8.70913 47.8633 8.22215 47.6778 7.85021 47.3059L2.96549 42.4212C2.22163 41.6783 2.22163 40.4723 2.96549 39.7284C3.70936 38.9845 4.91541 38.9845 5.65829 39.7284L10.543 44.6131C11.2869 45.357 11.2869 46.562 10.543 47.3059C10.1711 47.6778 9.68409 47.8633 9.19611 47.8633Z" fill="#BF3F6E"/>
</g>
<defs>
<clipPath id="clip0">
<rect width="130" height="130" fill="white"/>
</clipPath>
</defs>
</svg>
