<?xml version="1.0" encoding="UTF-8"?>
<svg xmlns="http://www.w3.org/2000/svg" xmlns:xlink="http://www.w3.org/1999/xlink" width="116px" height="108px" viewBox="0 0 116 108" version="1.1">
<g id="surface1">
<path style="fill:none;stroke-width:1;stroke-linecap:butt;stroke-linejoin:miter;stroke:rgb(74.901961%,24.705882%,43.137255%);stroke-opacity:0.301961;stroke-miterlimit:4;" d="M 60.347656 58.140625 L 60.378906 58.203125 L 60.40625 58.261719 L 60.4375 58.324219 L 60.464844 58.382812 L 60.519531 58.507812 L 60.542969 58.570312 L 60.570312 58.632812 L 60.59375 58.699219 L 60.617188 58.761719 L 60.664062 58.894531 L 60.683594 58.960938 L 60.707031 59.027344 L 60.746094 59.160156 L 60.765625 59.230469 L 60.785156 59.296875 L 60.816406 59.4375 L 60.835938 59.507812 L 60.847656 59.578125 L 60.878906 59.71875 L 60.890625 59.789062 L 60.902344 59.863281 L 60.914062 59.933594 L 60.921875 60.007812 L 60.933594 60.082031 L 60.941406 60.152344 L 60.957031 60.300781 L 60.964844 60.378906 L 60.976562 60.601562 L 60.980469 60.679688 L 60.980469 61.0625 L 60.964844 61.375 L 60.941406 61.609375 L 60.933594 61.691406 L 60.910156 61.847656 L 60.898438 61.929688 L 60.886719 62.007812 L 60.871094 62.085938 L 60.855469 62.167969 L 60.839844 62.246094 L 60.824219 62.328125 L 60.804688 62.40625 L 60.789062 62.488281 L 60.765625 62.566406 L 60.726562 62.730469 L 60.703125 62.808594 L 60.679688 62.890625 L 60.652344 62.96875 L 60.628906 63.050781 L 60.601562 63.128906 L 60.574219 63.210938 L 60.542969 63.289062 L 60.515625 63.371094 L 60.484375 63.449219 L 60.453125 63.53125 L 60.417969 63.609375 L 60.386719 63.691406 L 60.351562 63.769531 L 60.3125 63.851562 L 60.277344 63.929688 L 60.199219 64.085938 L 60.160156 64.167969 L 60.121094 64.246094 L 59.992188 64.480469 L 59.898438 64.636719 L 59.851562 64.710938 L 59.804688 64.789062 L 59.753906 64.867188 L 59.703125 64.941406 L 59.652344 65.019531 L 59.601562 65.09375 L 59.546875 65.171875 L 59.496094 65.246094 L 59.4375 65.320312 L 59.382812 65.394531 L 59.324219 65.46875 L 59.269531 65.542969 L 59.207031 65.613281 L 59.148438 65.6875 L 59.085938 65.757812 L 59.023438 65.832031 L 58.898438 65.972656 L 58.699219 66.183594 L 58.5625 66.320312 L 58.421875 66.453125 L 58.351562 66.523438 L 58.277344 66.585938 L 58.128906 66.71875 L 58.054688 66.78125 L 57.976562 66.84375 L 57.898438 66.910156 L 57.820312 66.96875 L 57.742188 67.03125 L 57.660156 67.09375 L 57.582031 67.152344 L 57.5 67.210938 L 57.414062 67.273438 L 57.332031 67.328125 L 57.246094 67.386719 L 57.164062 67.445312 L 57.074219 67.5 L 56.902344 67.609375 L 56.8125 67.660156 L 56.722656 67.714844 L 56.632812 67.765625 L 56.539062 67.816406 L 56.449219 67.867188 L 56.355469 67.917969 L 56.167969 68.011719 L 56.070312 68.058594 L 55.976562 68.105469 L 55.878906 68.152344 L 55.585938 68.28125 L 55.484375 68.320312 L 55.382812 68.363281 L 55.28125 68.402344 L 55.179688 68.4375 L 55.078125 68.476562 L 54.976562 68.511719 L 54.660156 68.617188 L 54.34375 68.710938 L 54.234375 68.738281 L 54.128906 68.765625 L 53.910156 68.820312 L 53.800781 68.84375 L 53.6875 68.867188 L 53.578125 68.890625 L 53.464844 68.914062 L 53.355469 68.933594 L 53.242188 68.953125 L 53.128906 68.96875 L 53.015625 68.988281 L 52.902344 69.003906 L 52.785156 69.019531 L 52.671875 69.03125 L 52.554688 69.042969 L 52.441406 69.054688 L 52.324219 69.066406 L 52.089844 69.082031 L 51.972656 69.085938 L 51.855469 69.09375 L 51.738281 69.097656 L 51.621094 69.097656 L 51.5 69.101562 L 51.382812 69.101562 L 51.261719 69.097656 L 51.144531 69.097656 L 50.902344 69.089844 L 50.785156 69.082031 L 50.542969 69.066406 L 50.421875 69.054688 L 50.300781 69.046875 L 50.179688 69.03125 L 50.058594 69.019531 L 49.816406 68.988281 L 49.574219 68.949219 L 49.449219 68.929688 L 49.328125 68.910156 L 49.207031 68.886719 L 49.085938 68.859375 L 48.964844 68.835938 L 48.839844 68.808594 L 48.71875 68.78125 L 48.476562 68.71875 L 48.351562 68.6875 L 47.988281 68.582031 L 47.625 68.464844 L 47.261719 68.335938 L 47.140625 68.289062 L 47.023438 68.242188 L 46.902344 68.195312 L 46.78125 68.144531 L 46.664062 68.09375 L 46.542969 68.039062 L 46.425781 67.984375 L 46.304688 67.929688 L 46.1875 67.875 L 45.953125 67.757812 L 45.601562 67.570312 L 45.488281 67.503906 L 45.371094 67.4375 L 45.257812 67.371094 L 45.140625 67.304688 L 45.027344 67.234375 L 44.914062 67.160156 L 44.800781 67.089844 L 44.6875 67.015625 L 44.578125 66.941406 L 44.464844 66.863281 L 44.246094 66.707031 L 43.917969 66.460938 L 43.8125 66.375 L 43.703125 66.289062 L 43.597656 66.203125 L 43.386719 66.023438 L 43.285156 65.933594 L 43.179688 65.839844 L 42.875 65.558594 L 42.777344 65.460938 L 42.675781 65.363281 L 42.382812 65.058594 L 42.289062 64.957031 L 42.007812 64.640625 L 41.914062 64.53125 L 41.734375 64.3125 L 41.644531 64.199219 L 41.554688 64.089844 L 41.46875 63.972656 L 41.382812 63.859375 L 41.296875 63.742188 L 41.050781 63.390625 L 40.96875 63.269531 L 40.890625 63.148438 L 40.8125 63.023438 L 40.734375 62.902344 L 40.65625 62.777344 L 40.582031 62.652344 L 40.507812 62.523438 L 40.4375 62.398438 L 40.296875 62.140625 L 40.226562 62.007812 L 40.160156 61.878906 L 40.027344 61.613281 L 39.964844 61.476562 L 39.902344 61.34375 L 39.839844 61.207031 L 39.722656 60.933594 L 39.664062 60.792969 L 39.609375 60.652344 L 39.554688 60.515625 L 39.5 60.371094 L 39.398438 60.089844 L 39.351562 59.945312 L 39.300781 59.800781 L 39.257812 59.65625 L 39.210938 59.507812 L 39.167969 59.363281 L 39.128906 59.214844 L 39.085938 59.066406 L 39.046875 58.917969 L 38.976562 58.621094 L 38.941406 58.46875 L 38.910156 58.316406 L 38.878906 58.167969 L 38.847656 58.015625 L 38.820312 57.859375 L 38.792969 57.707031 L 38.769531 57.554688 L 38.722656 57.242188 L 38.703125 57.089844 L 38.683594 56.933594 L 38.667969 56.777344 L 38.652344 56.617188 L 38.628906 56.304688 L 38.617188 56.144531 L 38.609375 55.984375 L 38.601562 55.828125 L 38.589844 55.347656 L 38.589844 55.027344 L 38.59375 54.867188 L 38.597656 54.703125 L 38.613281 54.382812 L 38.625 54.21875 L 38.636719 54.058594 L 38.648438 53.894531 L 38.664062 53.734375 L 38.679688 53.570312 L 38.699219 53.40625 L 38.71875 53.246094 L 38.765625 52.917969 L 38.789062 52.757812 L 38.816406 52.59375 L 38.847656 52.429688 L 38.875 52.269531 L 38.945312 51.941406 L 38.980469 51.78125 L 39.015625 51.617188 L 39.058594 51.457031 L 39.097656 51.292969 L 39.140625 51.128906 L 39.234375 50.808594 L 39.28125 50.644531 L 39.382812 50.324219 L 39.4375 50.160156 L 39.492188 50 L 39.609375 49.679688 L 39.671875 49.519531 L 39.734375 49.363281 L 39.796875 49.203125 L 39.863281 49.042969 L 39.929688 48.886719 L 40 48.726562 L 40.074219 48.570312 L 40.144531 48.414062 L 40.222656 48.257812 L 40.296875 48.101562 L 40.375 47.945312 L 40.457031 47.792969 L 40.539062 47.636719 L 40.621094 47.484375 L 40.707031 47.332031 L 40.796875 47.179688 L 40.882812 47.027344 L 40.976562 46.875 L 41.066406 46.726562 L 41.160156 46.574219 L 41.355469 46.277344 L 41.453125 46.132812 L 41.554688 45.984375 L 41.660156 45.839844 L 41.761719 45.691406 L 41.867188 45.546875 L 41.976562 45.40625 L 42.085938 45.261719 L 42.199219 45.121094 L 42.308594 44.980469 L 42.425781 44.839844 L 42.539062 44.703125 L 42.660156 44.5625 L 42.777344 44.425781 L 42.898438 44.289062 L 43.019531 44.15625 L 43.144531 44.019531 L 43.269531 43.886719 L 43.398438 43.757812 L 43.527344 43.625 L 43.65625 43.496094 L 43.921875 43.238281 L 44.332031 42.863281 L 44.613281 42.621094 L 44.757812 42.5 L 44.902344 42.382812 L 45.046875 42.261719 L 45.195312 42.148438 L 45.34375 42.03125 L 45.492188 41.917969 L 45.644531 41.804688 L 45.949219 41.585938 L 46.105469 41.476562 L 46.261719 41.371094 L 46.582031 41.160156 L 46.902344 40.957031 L 47.066406 40.855469 L 47.230469 40.757812 L 47.398438 40.660156 L 47.734375 40.472656 L 47.902344 40.382812 L 48.074219 40.289062 L 48.246094 40.203125 L 48.417969 40.113281 L 48.59375 40.03125 L 48.769531 39.945312 L 48.945312 39.863281 L 49.125 39.78125 L 49.484375 39.625 L 49.664062 39.550781 L 49.847656 39.476562 L 50.398438 39.265625 L 50.773438 39.132812 L 51.148438 39.007812 L 51.53125 38.890625 L 51.914062 38.78125 L 52.109375 38.730469 L 52.300781 38.679688 L 52.496094 38.628906 L 52.695312 38.582031 L 53.085938 38.496094 L 53.683594 38.378906 L 53.882812 38.34375 L 54.085938 38.3125 L 54.285156 38.28125 L 54.488281 38.25 L 54.691406 38.222656 L 55.097656 38.175781 L 55.300781 38.15625 L 55.507812 38.136719 L 55.710938 38.117188 L 55.917969 38.105469 L 56.125 38.089844 L 56.332031 38.082031 L 56.535156 38.070312 L 56.746094 38.066406 L 56.953125 38.058594 L 57.578125 38.058594 L 57.785156 38.0625 L 57.996094 38.070312 L 58.203125 38.078125 L 58.414062 38.085938 L 58.625 38.097656 L 58.832031 38.113281 L 59.042969 38.128906 L 59.464844 38.167969 L 59.675781 38.191406 L 59.882812 38.214844 L 60.09375 38.242188 L 60.515625 38.304688 L 61.148438 38.410156 L 61.355469 38.453125 L 61.777344 38.539062 L 61.984375 38.585938 L 62.195312 38.632812 L 62.40625 38.683594 L 62.820312 38.792969 L 63.03125 38.851562 L 63.238281 38.910156 L 63.652344 39.035156 L 63.859375 39.101562 L 64.273438 39.242188 L 64.476562 39.3125 L 64.683594 39.386719 L 64.886719 39.464844 L 65.09375 39.542969 L 65.296875 39.625 L 65.5 39.710938 L 65.699219 39.792969 L 66.105469 39.972656 L 66.304688 40.0625 L 66.503906 40.160156 L 66.703125 40.253906 L 66.902344 40.351562 L 67.097656 40.453125 L 67.296875 40.554688 L 67.6875 40.765625 L 67.878906 40.875 L 68.074219 40.988281 L 68.457031 41.214844 L 68.648438 41.332031 L 68.839844 41.453125 L 69.214844 41.695312 L 69.402344 41.820312 L 69.769531 42.078125 L 70.136719 42.34375 L 70.496094 42.617188 L 70.675781 42.757812 L 70.851562 42.898438 L 71.03125 43.039062 L 71.203125 43.1875 L 71.378906 43.332031 L 71.550781 43.480469 L 71.722656 43.632812 L 71.890625 43.785156 L 72.226562 44.097656 L 72.71875 44.578125 L 72.878906 44.742188 L 73.039062 44.910156 L 73.195312 45.078125 L 73.355469 45.246094 L 73.660156 45.589844 L 73.964844 45.941406 L 74.113281 46.121094 L 74.257812 46.300781 L 74.40625 46.480469 L 74.546875 46.664062 L 74.691406 46.851562 L 74.828125 47.039062 L 74.96875 47.226562 L 75.105469 47.414062 L 75.238281 47.605469 L 75.503906 47.996094 L 75.761719 48.386719 L 75.886719 48.585938 L 76.25 49.195312 L 76.367188 49.398438 L 76.484375 49.605469 L 76.597656 49.8125 L 76.707031 50.023438 L 76.820312 50.234375 L 76.925781 50.445312 L 77.136719 50.875 L 77.238281 51.089844 L 77.433594 51.527344 L 77.621094 51.964844 L 77.800781 52.410156 L 77.886719 52.636719 L 78.132812 53.316406 L 78.210938 53.542969 L 78.285156 53.773438 L 78.355469 54.003906 L 78.429688 54.238281 L 78.496094 54.46875 L 78.5625 54.703125 L 78.625 54.9375 L 78.6875 55.175781 L 78.746094 55.410156 L 78.855469 55.886719 L 78.90625 56.125 L 78.957031 56.367188 L 79.003906 56.605469 L 79.089844 57.089844 L 79.167969 57.574219 L 79.199219 57.820312 L 79.234375 58.0625 L 79.316406 58.800781 L 79.335938 59.046875 L 79.355469 59.296875 L 79.375 59.542969 L 79.398438 60.042969 L 79.410156 60.289062 L 79.414062 60.539062 L 79.421875 60.789062 L 79.421875 61.289062 L 79.417969 61.542969 L 79.402344 62.042969 L 79.390625 62.296875 L 79.378906 62.546875 L 79.363281 62.796875 L 79.34375 63.050781 L 79.320312 63.300781 L 79.296875 63.554688 L 79.269531 63.808594 L 79.238281 64.058594 L 79.207031 64.3125 L 79.171875 64.5625 L 79.136719 64.816406 L 79.09375 65.066406 L 79.050781 65.320312 L 79.007812 65.570312 L 78.960938 65.820312 L 78.910156 66.074219 L 78.800781 66.574219 L 78.742188 66.824219 L 78.617188 67.324219 L 78.550781 67.574219 L 78.480469 67.824219 L 78.40625 68.070312 L 78.332031 68.320312 L 78.257812 68.566406 L 78.175781 68.816406 L 78.09375 69.0625 L 77.921875 69.554688 L 77.832031 69.796875 L 77.738281 70.042969 L 77.644531 70.285156 L 77.546875 70.53125 L 77.445312 70.773438 L 77.339844 71.011719 L 77.234375 71.253906 L 77.125 71.492188 L 77.015625 71.734375 L 76.902344 71.972656 L 76.785156 72.207031 L 76.667969 72.445312 L 76.546875 72.679688 L 76.421875 72.914062 L 76.292969 73.148438 L 76.164062 73.378906 L 76.035156 73.613281 L 75.898438 73.84375 L 75.765625 74.070312 L 75.625 74.300781 L 75.484375 74.527344 L 75.339844 74.753906 L 75.191406 74.976562 L 75.042969 75.203125 L 74.890625 75.421875 L 74.738281 75.644531 L 74.582031 75.863281 L 74.261719 76.300781 L 73.933594 76.730469 L 73.765625 76.941406 L 73.421875 77.363281 L 73.246094 77.570312 L 72.886719 77.984375 L 72.519531 78.390625 L 72.144531 78.789062 L 71.953125 78.984375 L 71.5625 79.375 L 71.363281 79.566406 L 71.164062 79.753906 L 70.960938 79.945312 L 70.757812 80.128906 L 70.550781 80.316406 L 70.34375 80.496094 L 70.132812 80.679688 L 69.917969 80.855469 L 69.703125 81.035156 L 69.488281 81.210938 L 69.269531 81.382812 L 69.046875 81.554688 L 68.824219 81.722656 L 68.597656 81.890625 L 68.371094 82.054688 L 68.144531 82.214844 L 67.914062 82.378906 L 67.445312 82.691406 L 67.207031 82.847656 L 66.96875 83 L 66.730469 83.148438 L 66.488281 83.296875 L 66.246094 83.441406 L 65.753906 83.722656 L 65.503906 83.863281 L 65.253906 84 L 65.003906 84.132812 L 64.75 84.265625 L 64.492188 84.390625 L 64.238281 84.519531 L 63.980469 84.644531 L 63.71875 84.765625 L 63.195312 85 L 62.664062 85.226562 L 62.398438 85.335938 L 61.859375 85.546875 L 61.585938 85.648438 L 61.316406 85.746094 L 61.042969 85.839844 L 60.488281 86.027344 L 59.933594 86.199219 L 59.652344 86.28125 L 59.375 86.363281 L 59.089844 86.441406 L 58.808594 86.515625 L 58.238281 86.65625 L 57.953125 86.722656 L 57.664062 86.785156 L 57.378906 86.847656 L 57.089844 86.90625 L 56.796875 86.960938 L 56.507812 87.011719 L 56.214844 87.0625 L 55.925781 87.109375 L 55.632812 87.152344 L 55.335938 87.191406 L 55.042969 87.230469 L 54.746094 87.265625 L 54.453125 87.296875 L 54.15625 87.328125 L 53.859375 87.355469 L 53.5625 87.378906 L 53.261719 87.398438 L 52.964844 87.414062 L 52.664062 87.429688 L 52.367188 87.441406 L 51.765625 87.457031 L 50.863281 87.457031 L 50.261719 87.441406 L 49.957031 87.425781 L 49.65625 87.414062 L 49.355469 87.394531 L 49.050781 87.371094 L 48.75 87.347656 L 48.449219 87.320312 L 48.144531 87.289062 L 47.84375 87.257812 L 47.542969 87.21875 L 47.238281 87.179688 L 46.636719 87.09375 L 46.332031 87.042969 L 46.03125 86.992188 L 45.730469 86.9375 L 45.128906 86.820312 L 44.828125 86.753906 L 44.53125 86.6875 L 43.929688 86.546875 L 43.335938 86.390625 L 43.039062 86.308594 L 42.742188 86.222656 L 42.148438 86.042969 L 41.855469 85.949219 L 41.558594 85.851562 L 40.972656 85.648438 L 40.679688 85.542969 L 40.390625 85.433594 L 40.097656 85.320312 L 39.808594 85.203125 L 39.523438 85.085938 L 39.234375 84.964844 L 38.949219 84.839844 L 38.660156 84.714844 L 38.378906 84.582031 L 38.09375 84.449219 L 37.53125 84.175781 L 37.25 84.035156 L 36.972656 83.890625 L 36.695312 83.742188 L 36.417969 83.589844 L 36.144531 83.4375 L 35.867188 83.28125 L 35.597656 83.121094 L 35.324219 82.960938 L 35.054688 82.792969 L 34.523438 82.457031 L 33.992188 82.105469 L 33.730469 81.929688 L 33.472656 81.746094 L 33.210938 81.5625 L 32.957031 81.375 L 32.699219 81.183594 L 32.445312 80.992188 L 32.195312 80.796875 L 31.695312 80.398438 L 31.449219 80.195312 L 31.203125 79.988281 L 30.960938 79.78125 L 30.722656 79.570312 L 30.246094 79.140625 L 30.011719 78.921875 L 29.777344 78.699219 L 29.546875 78.476562 L 29.320312 78.25 L 28.867188 77.789062 L 28.644531 77.554688 L 28.425781 77.320312 L 28.207031 77.082031 L 27.777344 76.597656 L 27.566406 76.351562 L 27.359375 76.105469 L 27.152344 75.855469 L 26.949219 75.601562 L 26.75 75.347656 L 26.351562 74.832031 L 25.96875 74.308594 L 25.777344 74.042969 L 25.59375 73.773438 L 25.40625 73.503906 L 25.226562 73.234375 L 25.046875 72.960938 L 24.871094 72.683594 L 24.699219 72.40625 L 24.527344 72.125 L 24.359375 71.84375 L 24.195312 71.5625 L 24.03125 71.277344 L 23.5625 70.410156 L 23.410156 70.117188 L 23.265625 69.820312 L 23.117188 69.523438 L 22.976562 69.226562 L 22.835938 68.925781 L 22.699219 68.625 L 22.566406 68.324219 L 22.308594 67.714844 L 22.183594 67.40625 L 22.0625 67.097656 L 21.945312 66.785156 L 21.828125 66.476562 L 21.71875 66.160156 L 21.609375 65.847656 L 21.5 65.53125 L 21.398438 65.214844 L 21.203125 64.574219 L 21.109375 64.253906 L 21.019531 63.933594 L 20.847656 63.285156 L 20.769531 62.960938 L 20.691406 62.632812 L 20.617188 62.304688 L 20.546875 61.976562 L 20.480469 61.648438 L 20.355469 60.984375 L 20.296875 60.652344 L 20.246094 60.320312 L 20.195312 59.984375 L 20.148438 59.648438 L 20.105469 59.316406 L 20.0625 58.976562 L 19.992188 58.304688 L 19.9375 57.625 L 19.914062 57.289062 L 19.894531 56.949219 L 19.878906 56.605469 L 19.863281 56.265625 L 19.855469 55.925781 L 19.851562 55.585938 L 19.847656 55.242188 L 19.847656 54.898438 L 19.855469 54.558594 L 19.863281 54.214844 L 19.875 53.871094 L 19.890625 53.53125 L 19.90625 53.1875 L 19.929688 52.84375 L 19.984375 52.15625 L 20.054688 51.46875 L 20.09375 51.125 L 20.140625 50.785156 L 20.1875 50.441406 L 20.238281 50.097656 L 20.289062 49.757812 L 20.347656 49.414062 L 20.410156 49.070312 L 20.542969 48.390625 L 20.617188 48.046875 L 20.691406 47.707031 L 20.769531 47.367188 L 20.851562 47.027344 L 20.9375 46.691406 L 21.027344 46.351562 L 21.121094 46.015625 L 21.21875 45.679688 L 21.320312 45.339844 L 21.421875 45.007812 L 21.640625 44.335938 L 21.753906 44.003906 L 21.996094 43.339844 L 22.121094 43.011719 L 22.246094 42.679688 L 22.378906 42.351562 L 22.515625 42.027344 L 22.652344 41.699219 L 22.941406 41.050781 L 23.089844 40.726562 L 23.242188 40.40625 L 23.398438 40.085938 L 23.558594 39.765625 L 23.71875 39.449219 L 23.886719 39.132812 L 24.054688 38.820312 L 24.230469 38.503906 L 24.40625 38.191406 L 24.765625 37.574219 L 24.953125 37.265625 L 25.140625 36.960938 L 25.335938 36.65625 L 25.53125 36.355469 L 25.730469 36.054688 L 25.933594 35.753906 L 26.136719 35.457031 L 26.347656 35.160156 L 26.558594 34.867188 L 26.773438 34.578125 L 26.992188 34.285156 L 27.4375 33.714844 L 27.664062 33.429688 L 27.894531 33.148438 L 28.128906 32.867188 L 28.367188 32.589844 L 28.605469 32.316406 L 28.847656 32.042969 L 29.09375 31.769531 L 29.34375 31.5 L 29.597656 31.234375 L 29.851562 30.972656 L 30.109375 30.707031 L 30.367188 30.449219 L 30.632812 30.191406 L 30.898438 29.9375 L 31.167969 29.683594 L 31.4375 29.433594 L 31.710938 29.1875 L 31.988281 28.941406 L 32.269531 28.699219 L 32.550781 28.460938 L 32.835938 28.222656 L 33.125 27.988281 L 33.710938 27.527344 L 34.003906 27.300781 L 34.304688 27.078125 L 34.90625 26.640625 L 35.210938 26.425781 L 35.519531 26.210938 L 36.144531 25.796875 L 36.460938 25.59375 L 36.777344 25.394531 L 37.097656 25.195312 L 37.417969 25 L 37.742188 24.808594 L 38.070312 24.621094 L 38.398438 24.4375 L 38.730469 24.253906 L 39.0625 24.074219 L 39.398438 23.898438 L 39.734375 23.726562 L 40.074219 23.554688 L 40.414062 23.390625 L 40.757812 23.226562 L 41.101562 23.066406 L 41.449219 22.910156 L 41.796875 22.757812 L 42.5 22.460938 L 43.210938 22.179688 L 43.566406 22.042969 L 43.925781 21.910156 L 44.285156 21.78125 L 44.648438 21.65625 L 45.011719 21.535156 L 45.378906 21.414062 L 46.113281 21.1875 L 46.855469 20.976562 L 47.226562 20.875 L 47.601562 20.777344 L 47.976562 20.683594 L 48.351562 20.59375 L 48.730469 20.507812 L 49.109375 20.425781 L 49.867188 20.269531 L 50.25 20.199219 L 51.015625 20.066406 L 51.402344 20.007812 L 51.785156 19.953125 L 52.171875 19.898438 L 52.558594 19.851562 L 52.949219 19.804688 L 53.335938 19.761719 L 54.117188 19.691406 L 54.898438 19.636719 L 55.289062 19.613281 L 55.683594 19.597656 L 56.074219 19.582031 L 56.46875 19.570312 L 57.257812 19.5625 L 57.652344 19.5625 L 58.046875 19.566406 L 58.835938 19.589844 L 59.230469 19.605469 L 60.019531 19.652344 L 60.417969 19.679688 L 61.207031 19.75 L 61.601562 19.789062 L 62.390625 19.882812 L 63.179688 19.992188 L 63.574219 20.050781 L 64.363281 20.183594 L 64.753906 20.257812 L 65.148438 20.332031 L 65.539062 20.414062 L 65.933594 20.496094 L 66.324219 20.585938 L 66.710938 20.675781 L 67.101562 20.769531 L 67.492188 20.871094 L 67.878906 20.972656 L 68.652344 21.191406 L 69.039062 21.308594 L 69.421875 21.425781 L 69.808594 21.550781 L 70.191406 21.675781 L 70.570312 21.808594 L 70.953125 21.941406 L 71.710938 22.222656 L 72.089844 22.371094 L 72.464844 22.519531 L 72.839844 22.675781 L 73.210938 22.832031 L 73.585938 22.992188 L 73.953125 23.160156 L 74.324219 23.328125 L 74.691406 23.5 L 75.058594 23.675781 L 75.785156 24.042969 L 76.148438 24.230469 L 76.507812 24.421875 L 76.863281 24.617188 L 77.222656 24.816406 L 77.574219 25.019531 L 77.929688 25.222656 L 78.277344 25.433594 L 78.628906 25.648438 L 78.976562 25.863281 L 79.664062 26.308594 L 80.34375 26.769531 L 80.679688 27.003906 L 81.015625 27.242188 L 81.347656 27.484375 L 82.003906 27.976562 L 82.652344 28.484375 L 82.972656 28.742188 L 83.292969 29.007812 L 83.605469 29.273438 L 83.921875 29.539062 L 84.230469 29.8125 L 84.539062 30.089844 L 84.84375 30.367188 L 85.148438 30.648438 L 85.449219 30.933594 L 85.746094 31.222656 L 86.039062 31.511719 L 86.332031 31.808594 L 86.621094 32.105469 L 86.90625 32.40625 L 87.191406 32.710938 L 87.472656 33.015625 L 87.75 33.324219 L 88.023438 33.636719 L 88.296875 33.953125 L 88.828125 34.59375 L 89.09375 34.917969 L 89.609375 35.574219 L 89.859375 35.90625 L 90.109375 36.242188 L 90.355469 36.578125 L 90.597656 36.921875 L 90.839844 37.261719 L 91.308594 37.957031 L 91.539062 38.308594 L 91.765625 38.660156 L 91.988281 39.015625 L 92.207031 39.375 L 92.421875 39.734375 L 92.632812 40.097656 L 92.84375 40.464844 L 93.046875 40.832031 L 93.25 41.203125 L 93.449219 41.574219 L 93.832031 42.324219 L 94.019531 42.703125 L 94.203125 43.085938 L 94.554688 43.851562 L 94.726562 44.238281 L 94.894531 44.628906 L 95.058594 45.019531 L 95.21875 45.410156 L 95.375 45.804688 L 95.527344 46.203125 L 95.675781 46.601562 L 95.820312 47 L 95.960938 47.402344 L 96.097656 47.804688 L 96.355469 48.617188 L 96.480469 49.023438 L 96.601562 49.433594 L 96.828125 50.253906 L 96.9375 50.667969 L 97.039062 51.082031 L 97.234375 51.917969 L 97.324219 52.335938 L 97.410156 52.753906 L 97.492188 53.175781 L 97.570312 53.597656 L 97.644531 54.019531 L 97.714844 54.445312 L 97.78125 54.871094 L 97.898438 55.722656 L 97.949219 56.148438 L 98 56.578125 L 98.042969 57.007812 L 98.082031 57.4375 L 98.117188 57.867188 L 98.148438 58.296875 L 98.175781 58.730469 L 98.195312 59.164062 L 98.214844 59.59375 L 98.226562 60.027344 L 98.234375 60.460938 L 98.238281 60.894531 L 98.238281 61.328125 L 98.234375 61.765625 L 98.226562 62.199219 L 98.210938 62.632812 L 98.195312 63.070312 L 98.171875 63.503906 L 98.144531 63.9375 L 98.113281 64.375 L 98.078125 64.808594 L 98.039062 65.246094 L 97.945312 66.113281 L 97.890625 66.550781 L 97.832031 66.984375 L 97.769531 67.417969 L 97.703125 67.851562 L 97.554688 68.71875 L 97.472656 69.148438 L 97.390625 69.582031 L 97.300781 70.011719 L 97.207031 70.441406 L 97.109375 70.871094 L 96.898438 71.730469 L 96.785156 72.160156 L 96.550781 73.011719 L 96.425781 73.4375 L 96.296875 73.859375 L 96.160156 74.285156 L 96.023438 74.707031 L 95.878906 75.125 L 95.734375 75.546875 L 95.582031 75.964844 L 95.425781 76.382812 L 95.265625 76.796875 L 95.101562 77.210938 L 94.933594 77.625 L 94.761719 78.039062 L 94.582031 78.449219 L 94.402344 78.855469 L 94.214844 79.265625 L 94.023438 79.671875 L 93.832031 80.074219 L 93.632812 80.476562 L 93.429688 80.878906 L 93.222656 81.277344 L 93.011719 81.671875 L 92.792969 82.070312 L 92.574219 82.460938 L 92.351562 82.855469 L 92.121094 83.242188 L 91.890625 83.632812 L 91.65625 84.015625 L 91.414062 84.398438 L 91.167969 84.78125 L 90.921875 85.160156 L 90.414062 85.910156 L 90.152344 86.285156 L 89.621094 87.019531 L 89.347656 87.386719 L 89.070312 87.75 L 88.792969 88.109375 L 88.507812 88.464844 L 88.21875 88.820312 L 87.929688 89.171875 L 87.632812 89.523438 L 87.335938 89.871094 L 87.03125 90.214844 L 86.726562 90.554688 L 86.414062 90.894531 L 86.101562 91.230469 L 85.785156 91.5625 L 85.464844 91.890625 L 85.140625 92.21875 L 84.8125 92.542969 L 84.480469 92.863281 L 84.144531 93.179688 L 83.804688 93.496094 L 83.464844 93.808594 L 83.121094 94.113281 L 82.769531 94.421875 L 82.417969 94.722656 L 81.707031 95.316406 L 80.980469 95.894531 L 80.609375 96.179688 L 80.238281 96.460938 L 79.867188 96.738281 L 79.488281 97.015625 L 79.109375 97.285156 L 78.726562 97.550781 L 78.339844 97.816406 L 77.558594 98.332031 L 77.164062 98.582031 L 76.765625 98.832031 L 76.363281 99.078125 L 75.960938 99.320312 L 75.148438 99.789062 L 74.734375 100.019531 L 74.324219 100.242188 L 73.90625 100.464844 L 73.488281 100.683594 L 73.066406 100.898438 L 72.644531 101.105469 L 72.214844 101.3125 L 71.789062 101.511719 L 71.359375 101.710938 L 70.925781 101.902344 L 70.488281 102.09375 L 70.050781 102.277344 L 69.613281 102.457031 L 69.171875 102.632812 L 68.726562 102.804688 L 68.28125 102.972656 L 67.835938 103.136719 L 67.382812 103.296875 L 66.933594 103.449219 L 66.480469 103.601562 L 65.566406 103.890625 L 65.109375 104.027344 L 64.648438 104.160156 L 64.1875 104.285156 L 63.722656 104.410156 L 63.257812 104.53125 L 62.792969 104.644531 L 62.324219 104.753906 L 61.855469 104.859375 L 61.386719 104.960938 L 60.914062 105.058594 L 60.441406 105.148438 L 59.964844 105.238281 L 59.492188 105.320312 L 59.015625 105.398438 L 58.535156 105.46875 L 58.058594 105.539062 L 57.578125 105.601562 L 57.097656 105.660156 L 56.617188 105.714844 L 56.132812 105.765625 L 55.648438 105.8125 L 55.167969 105.851562 L 54.683594 105.886719 L 54.195312 105.917969 L 53.226562 105.964844 L 52.738281 105.980469 L 52.25 105.992188 L 51.761719 105.996094 L 51.277344 106 L 50.789062 105.996094 L 50.296875 105.988281 L 49.808594 105.976562 L 49.320312 105.960938 L 48.832031 105.9375 L 48.34375 105.910156 L 47.855469 105.878906 L 47.367188 105.839844 L 46.875 105.800781 L 46.386719 105.753906 L 45.410156 105.644531 L 44.921875 105.585938 L 44.4375 105.515625 L 43.949219 105.445312 L 43.460938 105.371094 L 42.976562 105.289062 L 42.492188 105.203125 L 42.003906 105.113281 L 41.519531 105.019531 L 41.039062 104.921875 L 40.554688 104.816406 L 40.070312 104.703125 L 39.589844 104.589844 L 39.109375 104.472656 L 38.632812 104.347656 L 38.152344 104.21875 L 37.675781 104.085938 L 36.722656 103.804688 L 36.25 103.65625 L 35.777344 103.503906 L 35.304688 103.34375 L 34.835938 103.183594 L 34.367188 103.015625 L 33.898438 102.84375 L 33.433594 102.667969 L 32.96875 102.484375 L 32.507812 102.300781 L 32.046875 102.109375 L 31.585938 101.914062 L 31.128906 101.714844 L 30.675781 101.507812 L 30.21875 101.300781 L 29.769531 101.085938 L 29.316406 100.867188 L 28.871094 100.644531 L 28.425781 100.417969 L 27.980469 100.1875 L 27.539062 99.949219 L 27.097656 99.707031 L 26.660156 99.464844 L 26.226562 99.214844 L 25.792969 98.957031 L 25.363281 98.699219 L 24.933594 98.4375 L 24.507812 98.167969 L 24.085938 97.898438 L 23.664062 97.621094 L 23.246094 97.339844 L 22.832031 97.054688 L 22.417969 96.765625 L 22.007812 96.472656 L 21.601562 96.175781 L 21.195312 95.875 L 20.796875 95.570312 L 20 94.945312 L 19.21875 94.304688 L 18.832031 93.976562 L 18.449219 93.648438 L 17.691406 92.976562 L 17.316406 92.632812 L 16.945312 92.285156 L 16.578125 91.9375 L 16.214844 91.582031 L 15.855469 91.226562 L 15.144531 90.5 L 14.792969 90.132812 L 14.105469 89.382812 L 13.765625 89.003906 L 13.429688 88.621094 L 13.097656 88.234375 L 12.769531 87.84375 L 12.445312 87.449219 L 12.125 87.054688 L 11.808594 86.652344 L 11.496094 86.25 L 11.1875 85.84375 L 10.882812 85.433594 L 10.582031 85.019531 L 9.996094 84.183594 L 9.707031 83.761719 L 9.421875 83.335938 L 9.140625 82.90625 L 8.59375 82.039062 L 8.328125 81.601562 L 7.804688 80.71875 L 7.550781 80.269531 L 7.058594 79.371094 L 6.816406 78.914062 L 6.347656 78 L 6.121094 77.535156 L 5.898438 77.074219 L 5.679688 76.605469 L 5.46875 76.136719 L 5.257812 75.664062 L 5.054688 75.191406 L 4.855469 74.714844 L 4.660156 74.234375 L 4.472656 73.753906 L 4.105469 72.785156 L 3.933594 72.300781 L 3.761719 71.808594 L 3.597656 71.320312 L 3.4375 70.828125 L 3.28125 70.332031 L 3.128906 69.835938 L 2.984375 69.335938 L 2.84375 68.835938 L 2.707031 68.335938 L 2.578125 67.832031 L 2.453125 67.328125 L 2.332031 66.820312 L 2.214844 66.3125 L 2.105469 65.804688 L 2 65.292969 L 1.804688 64.269531 L 1.71875 63.753906 L 1.632812 63.242188 L 1.554688 62.722656 L 1.480469 62.207031 L 1.410156 61.6875 L 1.347656 61.167969 L 1.289062 60.648438 L 1.238281 60.128906 L 1.1875 59.605469 L 1.109375 58.558594 L 1.078125 58.035156 L 1.050781 57.511719 L 1.03125 56.984375 L 1.015625 56.460938 L 1.003906 55.933594 L 1 55.40625 L 1 54.882812 L 1.015625 53.828125 L 1.054688 52.773438 L 1.082031 52.246094 L 1.152344 51.191406 L 1.246094 50.136719 L 1.300781 49.609375 L 1.359375 49.082031 L 1.425781 48.554688 L 1.496094 48.03125 L 1.570312 47.503906 L 1.652344 46.980469 L 1.738281 46.453125 L 1.832031 45.929688 L 1.929688 45.40625 L 2.03125 44.886719 L 2.140625 44.363281 L 2.253906 43.84375 L 2.375 43.320312 L 2.496094 42.800781 L 2.628906 42.285156 L 2.761719 41.765625 L 2.902344 41.25 L 3.046875 40.734375 L 3.199219 40.222656 L 3.355469 39.710938 L 3.683594 38.6875 L 3.855469 38.179688 L 4.035156 37.671875 L 4.21875 37.167969 L 4.40625 36.664062 L 4.597656 36.160156 L 4.796875 35.660156 L 5 35.160156 L 5.210938 34.664062 L 5.425781 34.167969 L 5.644531 33.671875 L 5.867188 33.179688 L 6.097656 32.691406 L 6.332031 32.203125 L 6.570312 31.71875 L 6.816406 31.234375 L 7.066406 30.753906 L 7.320312 30.273438 L 7.582031 29.796875 L 7.84375 29.324219 L 8.390625 28.378906 L 8.667969 27.914062 L 8.953125 27.449219 L 9.242188 26.988281 L 9.539062 26.527344 L 9.835938 26.070312 L 10.140625 25.617188 L 10.449219 25.164062 L 10.761719 24.714844 L 11.082031 24.269531 L 11.730469 23.386719 L 12.0625 22.953125 L 12.742188 22.085938 L 13.4375 21.234375 L 13.792969 20.816406 L 14.152344 20.398438 L 14.886719 19.570312 L 15.257812 19.164062 L 16.015625 18.359375 L 16.402344 17.964844 L 16.792969 17.570312 L 17.1875 17.179688 L 17.585938 16.792969 L 17.988281 16.414062 L 18.394531 16.035156 L 18.804688 15.660156 L 19.21875 15.289062 L 19.636719 14.921875 L 20.058594 14.558594 L 20.484375 14.199219 L 20.914062 13.847656 L 21.347656 13.496094 L 21.789062 13.148438 L 22.230469 12.804688 L 23.121094 12.132812 L 23.574219 11.804688 L 24.03125 11.480469 L 24.492188 11.15625 L 24.953125 10.839844 L 25.421875 10.527344 L 25.890625 10.222656 L 26.363281 9.917969 L 26.839844 9.621094 L 27.320312 9.324219 L 27.804688 9.035156 L 28.289062 8.75 L 28.78125 8.46875 L 29.273438 8.195312 L 29.769531 7.921875 L 30.265625 7.65625 L 30.769531 7.394531 L 31.273438 7.140625 L 31.78125 6.886719 L 32.289062 6.640625 L 32.804688 6.398438 L 33.835938 5.929688 L 34.359375 5.703125 L 34.882812 5.480469 L 35.40625 5.265625 L 35.9375 5.054688 L 36.464844 4.847656 L 37 4.644531 L 37.535156 4.449219 L 38.074219 4.257812 L 38.613281 4.074219 L 39.15625 3.890625 L 39.699219 3.71875 L 40.246094 3.546875 L 40.792969 3.382812 L 41.34375 3.222656 L 41.894531 3.070312 L 42.449219 2.921875 L 43.003906 2.777344 L 43.5625 2.640625 L 44.121094 2.507812 L 44.683594 2.378906 L 45.246094 2.257812 L 45.808594 2.140625 L 46.375 2.03125 L 46.941406 1.925781 L 47.507812 1.828125 L 48.078125 1.734375 L 48.648438 1.644531 L 49.21875 1.5625 L 49.792969 1.484375 L 50.367188 1.414062 L 50.941406 1.347656 L 51.515625 1.289062 L 52.09375 1.234375 L 52.667969 1.183594 L 53.246094 1.140625 L 53.828125 1.105469 L 54.40625 1.074219 L 54.984375 1.046875 L 55.566406 1.027344 L 56.148438 1.011719 L 56.730469 1.003906 L 57.3125 1 L 57.894531 1.003906 L 58.476562 1.011719 L 59.058594 1.023438 L 60.222656 1.070312 L 60.808594 1.101562 L 61.390625 1.140625 L 61.972656 1.183594 L 62.554688 1.230469 L 63.136719 1.285156 L 63.71875 1.34375 L 64.300781 1.410156 L 64.882812 1.484375 L 65.464844 1.5625 L 66.042969 1.644531 L 66.621094 1.734375 L 67.203125 1.828125 L 67.78125 1.929688 L 68.359375 2.035156 L 68.933594 2.148438 L 69.511719 2.265625 L 70.085938 2.390625 L 70.660156 2.519531 L 71.230469 2.652344 L 71.804688 2.792969 L 72.375 2.941406 L 72.945312 3.09375 L 73.511719 3.25 L 74.078125 3.414062 L 74.644531 3.585938 L 75.207031 3.757812 L 76.332031 4.125 L 76.890625 4.316406 L 77.449219 4.515625 L 78.003906 4.71875 L 78.558594 4.925781 L 79.109375 5.140625 L 79.660156 5.359375 L 80.207031 5.585938 L 80.753906 5.816406 L 81.296875 6.054688 L 81.839844 6.296875 L 82.378906 6.542969 L 82.914062 6.796875 L 83.449219 7.054688 L 83.984375 7.316406 L 84.511719 7.585938 L 85.039062 7.859375 L 85.566406 8.140625 L 86.089844 8.425781 L 86.609375 8.714844 L 87.640625 9.308594 L 88.152344 9.617188 L 88.660156 9.925781 L 89.164062 10.242188 L 89.667969 10.566406 L 90.167969 10.890625 L 90.664062 11.222656 L 91.15625 11.558594 L 91.648438 11.902344 L 92.132812 12.246094 L 92.617188 12.597656 L 93.097656 12.957031 L 93.574219 13.316406 L 94.046875 13.683594 L 94.515625 14.054688 L 94.984375 14.429688 L 95.90625 15.195312 L 96.359375 15.585938 L 96.8125 15.980469 L 97.257812 16.378906 L 97.703125 16.785156 L 98.140625 17.191406 L 98.578125 17.605469 L 99.011719 18.023438 L 99.4375 18.445312 L 99.863281 18.871094 L 100.28125 19.304688 L 100.695312 19.738281 L 101.515625 20.621094 L 101.914062 21.070312 L 102.3125 21.523438 L 102.707031 21.976562 L 103.097656 22.4375 L 103.480469 22.902344 L 103.863281 23.371094 L 104.238281 23.84375 L 104.609375 24.320312 L 105.335938 25.28125 L 105.691406 25.769531 L 106.042969 26.261719 L 106.390625 26.757812 L 106.734375 27.257812 L 107.070312 27.757812 L 107.402344 28.265625 L 107.730469 28.773438 L 108.050781 29.285156 L 108.367188 29.804688 L 108.679688 30.324219 L 108.988281 30.84375 L 109.289062 31.371094 L 109.585938 31.902344 L 109.875 32.433594 L 110.160156 32.96875 L 110.441406 33.507812 L 110.71875 34.050781 L 110.984375 34.59375 L 111.25 35.140625 L 111.507812 35.691406 L 111.761719 36.246094 L 112.011719 36.800781 L 112.253906 37.359375 L 112.488281 37.921875 L 112.71875 38.484375 L 112.945312 39.050781 L 113.164062 39.621094 L 113.378906 40.191406 L 113.585938 40.765625 L 113.789062 41.339844 L 113.984375 41.917969 L 114.175781 42.5 L 114.363281 43.082031 L 114.714844 44.253906 L 114.882812 44.84375 L 115.042969 45.433594 L 115.199219 46.023438 L 115.347656 46.621094 L 115.492188 47.214844 L 115.628906 47.8125 L 115.761719 48.410156 L 115.886719 49.011719 L 116.007812 49.613281 L 116.121094 50.21875 L 116.226562 50.824219 L 116.328125 51.429688 L 116.421875 52.039062 L 116.511719 52.644531 L 116.59375 53.257812 L 116.671875 53.867188 L 116.742188 54.480469 L 116.804688 55.09375 L 116.863281 55.707031 L 116.914062 56.320312 L 116.960938 56.9375 L 117 57.550781 "/>
</g>
</svg>
