<svg width="101" height="101" viewBox="0 0 101 101" fill="none" xmlns="http://www.w3.org/2000/svg">
<g clip-path="url(#clip0)">
<path d="M30.0036 91.6051L12.4258 91.7038L11.9633 9.28319C11.936 4.41979 15.8399 0.472235 20.7029 0.444947C25.5663 0.417657 29.5138 4.32115 29.5411 9.18455L30.0036 91.6051Z" fill="#E8899E"/>
<path d="M21.2148 91.6544L12.4259 91.7038L11.9634 9.28319C11.9361 4.41979 15.84 0.472234 20.703 0.444946L21.2148 91.6544Z" fill="#BF3F6E"/>
<path d="M50.5605 100.279C45.6975 100.306 41.7496 96.4028 41.7223 91.5394L41.2598 9.11882C41.2325 4.25542 45.1364 0.307867 49.9994 0.28058C54.8628 0.25329 58.8104 4.15679 58.8376 9.02019L59.3001 91.4408C59.3274 96.3042 55.4239 100.252 50.5605 100.279Z" fill="#E8899E"/>
<path d="M50.5605 100.279C45.6975 100.306 41.7496 96.4028 41.7223 91.5394L41.2598 9.11882C41.2325 4.25542 45.1364 0.307866 49.9994 0.280579L50.5605 100.279Z" fill="#BF3F6E"/>
<path d="M79.8569 100.115C74.9939 100.142 71.046 96.2384 71.0187 91.375L70.5562 8.95441L88.134 8.85577L88.5965 91.2764C88.6238 96.1398 84.7203 100.087 79.8569 100.115Z" fill="#E8899E"/>
<path d="M79.8569 100.115C74.9939 100.142 71.0459 96.2384 71.0187 91.375L70.5562 8.95441L79.3451 8.90509L79.8569 100.115Z" fill="#BF3F6E"/>
<path d="M93.944 0.0339966L94.0097 11.7526L64.7133 11.917L64.6476 0.198388L93.944 0.0339966Z" fill="#323F59" fill-opacity="0.79"/>
<path d="M35.8466 88.6426L35.9123 100.361L6.6159 100.526L6.55014 88.807L35.8466 88.6426Z" fill="#323F59" fill-opacity="0.79"/>
<path d="M79.2958 0.116211L79.3615 11.8348L64.7133 11.917L64.6476 0.198407L79.2958 0.116211Z" fill="#323F59"/>
<path d="M64.8953 44.3383L64.961 56.0569L35.6646 56.2213L35.5989 44.5027L64.8953 44.3383Z" fill="#323F59" fill-opacity="0.79"/>
<path d="M50.2471 44.4205L50.3128 56.1391L35.6646 56.2213L35.5989 44.5027L50.2471 44.4205Z" fill="#323F59"/>
<path d="M21.1984 88.7249L21.2641 100.443L6.61591 100.526L6.55016 88.807L21.1984 88.7249Z" fill="#323F59"/>
</g>
<defs>
<clipPath id="clip0">
<rect width="100" height="100" fill="white" transform="translate(99.9985) rotate(89.6785)"/>
</clipPath>
</defs>
</svg>
