<svg width="130" height="130" viewBox="0 0 130 130" fill="none" xmlns="http://www.w3.org/2000/svg">
<g clip-path="url(#clip0)">
<path d="M65.0288 126.461H29.4174C20.2183 126.461 12.733 118.977 12.733 109.778V85.369H20.6646V109.778C20.6646 114.604 24.5912 118.531 29.4174 118.531H65.0288V126.461Z" fill="#323F59" fill-opacity="0.8"/>
<path d="M79.6343 5.59192H50.4242L31.4596 18.0849L35.1948 21.8201C37.8717 24.497 42.0602 24.9989 45.2538 22.9647C49.5494 20.2282 54.5918 18.7167 59.8445 18.7167H70.214C75.4677 18.7167 80.5101 20.2282 84.8057 22.9647C87.9984 24.9989 92.1868 24.497 94.8638 21.8201L98.599 18.0849L79.6343 5.59192Z" fill="#E8899E"/>
<path d="M113.29 74.6336C110.311 74.6336 107.896 72.2185 107.896 69.24V54.325C107.896 44.2779 104.924 34.566 99.3002 26.2396C92.7651 16.5634 81.8907 10.7861 70.214 10.7861H59.8445C48.1668 10.7861 37.2935 16.5634 30.7574 26.2396C25.1338 34.566 22.1613 44.2779 22.1613 54.325V69.24C22.1613 72.2185 19.7472 74.6336 16.7688 74.6336C13.7903 74.6336 11.3762 72.2185 11.3762 69.24V54.325C11.3762 42.1177 14.9874 30.318 21.8191 20.2024C30.3636 7.55272 44.5784 0 59.8445 0H70.214C85.4792 0 99.6949 7.55272 108.238 20.2034C115.07 30.319 118.682 42.1177 118.682 54.325V69.24C118.682 72.2185 116.268 74.6336 113.29 74.6336Z" fill="#F2CADD" fill-opacity="0.5"/>
<path d="M63.8277 0H59.8445C44.5784 0 30.3636 7.55272 21.8201 20.2034C14.9874 30.318 11.3762 42.1177 11.3762 54.325V69.24C11.3762 72.2185 13.7903 74.6336 16.7688 74.6336C19.7472 74.6336 22.1623 72.2195 22.1623 69.24V54.325C22.1623 44.2779 25.1348 34.566 30.7584 26.2396C37.2935 16.5634 48.1668 10.7861 59.8445 10.7861H65.3621C62.3558 7.99011 62.3757 2.8981 63.8277 0V0Z" fill="#BF3F6E"/>
<path d="M34.4568 97.3632C30.7811 99.5144 26.2307 99.5144 22.556 97.3632L20.0853 95.9161C18.0055 94.6991 16.728 92.4705 16.728 90.0614V58.335C16.728 55.9259 18.0055 53.6962 20.0853 52.4793L22.556 51.0332C26.2307 48.8809 30.7811 48.8809 34.4568 51.0332C38.0661 53.1458 40.2848 57.0149 40.2848 61.1974V87.198C40.2848 91.3805 38.0661 95.2496 34.4568 97.3632Z" fill="#E8899E"/>
<path d="M40.2848 68.0469V64.2383H35.6034C34.5511 64.2383 33.6991 65.0912 33.6991 66.1426C33.6991 67.1939 34.5511 68.0469 35.6034 68.0469H40.2848Z" fill="#323F59" fill-opacity="0.8"/>
<path d="M40.2848 84.157V80.3484H35.6034C34.5511 80.3484 33.6991 81.2014 33.6991 82.2527C33.6991 83.3051 34.5511 84.157 35.6034 84.157H40.2848Z" fill="#323F59" fill-opacity="0.8"/>
<path d="M21.5067 48.9335C18.4042 48.9335 15.3851 49.9362 12.8996 51.7919C9.57504 54.2754 7.61719 58.1812 7.61719 62.331V86.0643C7.61719 90.2141 9.57504 94.1199 12.8996 96.6024C15.3851 98.4591 18.4042 99.4618 21.5067 99.4618C23.8989 99.4618 25.8389 97.5228 25.8389 95.1295V53.2657C25.8389 50.8725 23.8989 48.9335 21.5067 48.9335Z" fill="#EDA5C7"/>
<path d="M12.8996 96.6034C15.3851 98.4591 18.4042 99.4628 21.5057 99.4628C23.8989 99.4628 25.8389 97.5228 25.8389 95.1296V80.3197C17.6237 81.9324 11.4922 78.6574 7.61719 74.5909V86.0653C7.61719 90.2141 9.57504 94.1199 12.8996 96.6034Z" fill="#F2CADD" fill-opacity="0.5"/>
<path d="M95.6016 97.3632C99.2763 99.5144 103.828 99.5144 107.502 97.3632L109.973 95.9161C112.053 94.6991 113.33 92.4705 113.33 90.0614V58.335C113.33 55.9259 112.053 53.6962 109.973 52.4793L107.502 51.0332C103.828 48.8809 99.2763 48.8809 95.6016 51.0332C91.9924 53.1458 89.7737 57.0149 89.7737 61.1974V87.198C89.7737 91.3805 91.9924 95.2496 95.6016 97.3632Z" fill="#E8899E"/>
<path d="M89.7737 68.0469V64.2383H94.4551C95.5074 64.2383 96.3594 65.0912 96.3594 66.1426C96.3594 67.1939 95.5074 68.0469 94.4551 68.0469H89.7737Z" fill="#323F59" fill-opacity="0.8"/>
<path d="M89.7737 84.157V80.3484H94.4551C95.5074 80.3484 96.3594 81.2014 96.3594 82.2527C96.3594 83.3051 95.5074 84.157 94.4551 84.157H89.7737Z" fill="#323F59" fill-opacity="0.8"/>
<path d="M108.552 48.9335C111.654 48.9335 114.673 49.9362 117.159 51.7919C120.483 54.2754 122.441 58.1812 122.441 62.331V86.0643C122.441 90.2141 120.483 94.1199 117.159 96.6024C114.673 98.4591 111.654 99.4618 108.552 99.4618C106.16 99.4618 104.22 97.5228 104.22 95.1295V53.2657C104.22 50.8725 106.16 48.9335 108.552 48.9335Z" fill="#EDA5C7"/>
<path d="M117.159 96.6034C114.673 98.4591 111.654 99.4628 108.552 99.4628C106.16 99.4628 104.22 97.5228 104.22 95.1296V80.3197C112.435 81.9324 118.566 78.6574 122.441 74.5909V86.0653C122.441 90.2141 120.483 94.1199 117.159 96.6034Z" fill="#F2CADD" fill-opacity="0.5"/>
<path d="M78.1437 130H51.9149C50.332 130 49.0486 128.717 49.0486 127.134V117.858C49.0486 116.275 50.331 114.992 51.9149 114.992H78.1437C79.7266 114.992 81.01 116.275 81.01 117.858V127.134C81.01 128.717 79.7266 130 78.1437 130Z" fill="#E8899E"/>
<path d="M81.01 126.853H92.6857C94.2399 126.853 95.7881 126.653 97.2917 126.258L100.032 125.537C100.91 125.306 101.522 124.512 101.522 123.604V121.388C101.522 120.48 100.91 119.686 100.032 119.456L97.2917 118.735C95.7881 118.339 94.2409 118.139 92.6857 118.139H81.01V126.853Z" fill="#EDA5C7"/>
<path d="M86.7456 118.139H90.5542V126.853H86.7456V118.139Z" fill="#BF3F6E"/>
<path d="M59.8237 114.992H63.6323V130H59.8237V114.992Z" fill="#F2CADD" fill-opacity="0.5"/>
</g>
<defs>
<clipPath id="clip0">
<rect width="130" height="130" fill="white"/>
</clipPath>
</defs>
</svg>
