<svg width="40" height="40" viewBox="0 0 40 40" fill="none" xmlns="http://www.w3.org/2000/svg">
<g clip-path="url(#clip0)">
<path d="M39.6638 21.8564C38.8571 20.7461 38.8571 19.2541 39.6638 18.1439C40.2334 17.3599 40.0591 16.2587 39.275 15.6891C38.1647 14.8824 37.7037 13.4635 38.1278 12.1583C38.4272 11.2366 37.921 10.2432 36.9995 9.94368C35.6942 9.51954 34.8173 8.31252 34.8173 6.9402C34.8173 5.97115 34.0289 5.18272 33.0598 5.18272C31.6874 5.18272 30.4804 4.30578 30.0562 3.00057C29.9112 2.55409 29.6009 2.19081 29.1826 1.97769C28.7644 1.76449 28.2881 1.72707 27.8416 1.87214C26.5366 2.29597 25.1175 1.83519 24.3108 0.724894C23.7412 -0.0590792 22.6399 -0.233686 21.856 0.336072C20.7457 1.14262 19.2538 1.14262 18.1435 0.336072C17.3595 -0.233686 16.2582 -0.0591574 15.6887 0.724894C14.882 1.83511 13.4629 2.29612 12.1578 1.87214C11.2364 1.57262 10.2427 2.07886 9.9433 3.00049C9.51916 4.3057 8.31222 5.18265 6.93982 5.18265C5.97077 5.18265 5.18235 5.97107 5.18235 6.94012C5.18235 8.31245 4.3054 9.51954 3.00019 9.9436C2.07856 10.243 1.5724 11.2365 1.87184 12.1582C2.29598 13.4634 1.83489 14.8824 0.724672 15.689C0.344912 15.9648 0.095228 16.3722 0.0217915 16.8359C-0.051645 17.2996 0.0598379 17.764 0.335772 18.1438C1.1424 19.2541 1.1424 20.7461 0.335772 21.8563C-0.233908 22.6403 -0.0594573 23.7415 0.724594 24.3111C1.83489 25.1178 2.2959 26.5367 1.87184 27.8419C1.5724 28.7636 2.07856 29.7571 3.00019 30.0565C4.3054 30.4806 5.18235 31.6876 5.18235 33.06C5.18235 34.029 5.97069 34.8175 6.93982 34.8175C8.31222 34.8175 9.51924 35.6944 9.94337 36.9996C10.0884 37.4461 10.3987 37.8094 10.817 38.0225C11.2352 38.2356 11.7114 38.273 12.158 38.1281C13.4629 37.7041 14.8821 38.1649 15.6888 39.2753C16.0322 39.748 16.569 39.9992 17.1129 39.9992C17.471 39.9992 17.8323 39.8903 18.1436 39.6641C19.2539 38.8575 20.7459 38.8575 21.8561 39.6641C22.6401 40.2338 23.7413 40.0594 24.3109 39.2753C25.1175 38.1651 26.5366 37.704 27.8417 38.1281C28.2881 38.2731 28.7644 38.2356 29.1827 38.0225C29.601 37.8094 29.9112 37.4461 30.0563 36.9996C30.4804 35.6944 31.6875 34.8174 33.0598 34.8175C34.0288 34.8175 34.8173 34.029 34.8173 33.06C34.8173 31.6876 35.6942 30.4805 36.9994 30.0565C37.921 29.7571 38.4272 28.7636 38.1278 27.8419C37.7036 26.5367 38.1646 25.1178 39.2749 24.3111C39.6547 24.0353 39.9044 23.6279 39.9778 23.1642C40.0512 22.7007 39.9398 22.2362 39.6638 21.8564ZM38.7158 22.5452C38.8077 22.6718 38.8449 22.8266 38.8204 22.981C38.7959 23.1356 38.7127 23.2712 38.5862 23.3633C37.0639 24.4692 36.4318 26.4147 37.0133 28.2042C37.1131 28.5114 36.9444 28.8424 36.6373 28.9422C34.8477 29.5235 33.6454 31.1785 33.6454 33.0602C33.6454 33.3831 33.3827 33.6458 33.0595 33.6458C31.1781 33.6458 29.5232 34.8482 28.9418 36.6377C28.8934 36.7864 28.7901 36.9074 28.6507 36.9785C28.5114 37.0495 28.3527 37.0621 28.2039 37.0136C26.4144 36.4321 24.4689 37.0642 23.363 38.5866C23.271 38.713 23.1352 38.7963 22.9808 38.8207C22.8262 38.8453 22.6716 38.808 22.5449 38.7161C21.0228 37.6102 18.9772 37.6102 17.4548 38.7161C17.3282 38.808 17.1733 38.8453 17.019 38.8207C16.8645 38.7963 16.7287 38.713 16.6368 38.5866C15.8048 37.4414 14.4978 36.8 13.1394 36.8C12.692 36.8 12.2391 36.8696 11.7958 37.0136C11.6469 37.0621 11.4884 37.0495 11.349 36.9785C11.2096 36.9074 11.1062 36.7864 11.0579 36.6377C10.4764 34.8482 8.82151 33.6458 6.9399 33.6458C6.61701 33.6458 6.35428 33.3831 6.35428 33.0602C6.35428 31.1785 5.15188 29.5235 3.36237 28.9422C3.05527 28.8424 2.8866 28.5113 2.98636 28.2042C3.56784 26.4147 2.93581 24.4692 1.41349 23.3633C1.28693 23.2713 1.20373 23.1356 1.17928 22.9811C1.15482 22.8265 1.19201 22.6718 1.28396 22.5452C2.38988 21.023 2.38988 18.9774 1.28396 17.4551C1.19201 17.3286 1.1549 17.1737 1.17935 17.0194C1.20381 16.8648 1.28701 16.7291 1.41357 16.6371C2.93581 15.5312 3.56791 13.5857 2.98644 11.7961C2.88667 11.489 3.05534 11.158 3.36245 11.0582C5.15196 10.4767 6.35428 8.82181 6.35428 6.9402C6.35428 6.61724 6.61701 6.35458 6.9399 6.35458C8.82151 6.35458 10.4764 5.15218 11.0579 3.36267C11.1577 3.05557 11.489 2.88697 11.7958 2.98666C13.5854 3.56814 15.5308 2.93611 16.6367 1.41371C16.8266 1.15254 17.1934 1.09442 17.4548 1.28418C18.9769 2.39011 21.0225 2.39018 22.5448 1.28418C22.6714 1.19223 22.8261 1.15489 22.9806 1.17958C23.1351 1.20403 23.2708 1.28723 23.3628 1.41371C24.4689 2.93604 26.4144 3.56806 28.2038 2.98666C28.3527 2.93822 28.5113 2.95088 28.6506 3.02182C28.79 3.09283 28.8933 3.21384 28.9417 3.36259C29.5232 5.1521 31.1781 6.35451 33.0597 6.35451C33.3826 6.35451 33.6453 6.61716 33.6453 6.94012C33.6453 8.82174 34.8477 10.4767 36.6372 11.0581C36.9443 11.1579 37.113 11.489 37.0132 11.7961C36.4318 13.5856 37.0639 15.5311 38.5862 16.637C38.7127 16.729 38.7959 16.8647 38.8204 17.0192C38.8449 17.1737 38.8077 17.3285 38.7158 17.4551C37.6098 18.9774 37.6098 21.023 38.7158 22.5452Z" fill="#E8899E"/>
<path d="M13.4765 18.0995C14.4458 18.0995 15.2343 17.3109 15.2343 16.3417V13.998C15.2343 13.0288 14.4458 12.2402 13.4765 12.2402C12.5073 12.2402 11.7188 13.0288 11.7188 13.998V16.3417C11.7188 17.3109 12.5073 18.0995 13.4765 18.0995ZM12.8906 13.998C12.8906 13.6749 13.1534 13.4121 13.4765 13.4121C13.7997 13.4121 14.0625 13.6749 14.0625 13.998V16.3417C14.0625 16.6649 13.7997 16.9277 13.4765 16.9277C13.1534 16.9277 12.8906 16.6649 12.8906 16.3417V13.998Z" fill="#E8899E"/>
<path d="M28.281 16.3417V13.998C28.281 13.0288 27.4924 12.2402 26.5232 12.2402C25.5539 12.2402 24.7654 13.0288 24.7654 13.998V16.3417C24.7654 17.3109 25.5539 18.0995 26.5232 18.0995C27.4924 18.0995 28.281 17.3109 28.281 16.3417ZM25.9372 16.3417V13.998C25.9372 13.6749 26.2 13.4121 26.5232 13.4121C26.8463 13.4121 27.1091 13.6749 27.1091 13.998V16.3417C27.1091 16.6649 26.8463 16.9277 26.5232 16.9277C26.2 16.9277 25.9372 16.6648 25.9372 16.3417Z" fill="#E8899E"/>
<path d="M11.35 21.3735C11.7857 23.3046 12.8779 25.0578 14.4253 26.31C15.9958 27.581 17.9755 28.281 19.9997 28.281C22.0239 28.281 24.0035 27.581 25.5741 26.31C27.1215 25.0578 28.2136 23.3045 28.6493 21.3735C28.7828 20.7818 28.604 20.1738 28.171 19.7469C27.7332 19.3153 27.1148 19.1435 26.5168 19.2875C22.2532 20.3143 17.746 20.3143 13.4825 19.2875C12.8844 19.1436 12.2662 19.3153 11.8284 19.7469C11.3953 20.1737 11.2165 20.7818 11.35 21.3735ZM15.1065 25.3343C16.4825 24.1966 18.197 23.5764 19.9998 23.5764C21.8025 23.5764 23.517 24.1966 24.8931 25.3343C23.545 26.4464 21.8265 27.1092 19.9998 27.1092C18.173 27.1092 16.4545 26.4464 15.1065 25.3343ZM12.6511 20.5814C12.7094 20.524 12.8524 20.409 13.063 20.409C13.1084 20.409 13.1569 20.4143 13.2083 20.4268C17.6514 21.4968 22.3482 21.4967 26.7912 20.4268C27.082 20.3568 27.2776 20.5117 27.3484 20.5814C27.4169 20.6489 27.5694 20.8361 27.5063 21.1156C27.2144 22.4091 26.593 23.5702 25.7441 24.5185C24.141 23.1513 22.1236 22.4045 19.9998 22.4045C17.876 22.4045 15.8586 23.1513 14.2555 24.5185C13.4066 23.5702 12.7851 22.4091 12.4932 21.1156C12.4301 20.8361 12.5826 20.6489 12.6511 20.5814Z" fill="#E8899E"/>
<path d="M19.9998 3.32068C16.0611 3.32068 12.2375 4.72035 9.23336 7.26187C8.98633 7.47086 8.95547 7.84054 9.16453 8.08757C9.37351 8.33467 9.74327 8.36545 9.9903 8.15647C12.7831 5.79377 16.3379 4.49254 19.9998 4.49254C28.5507 4.49254 35.5074 11.4492 35.5074 20.0001C35.5074 28.551 28.5507 35.5077 19.9998 35.5077C11.4489 35.5077 4.49217 28.551 4.49217 20.0001C4.49217 16.2157 5.87137 12.5707 8.37579 9.73668C8.59008 9.49419 8.56719 9.12388 8.3247 8.90959C8.0822 8.69529 7.71189 8.71826 7.49768 8.9606C4.80381 12.0091 3.32031 15.9296 3.32031 20.0001C3.32031 29.1973 10.8027 36.6796 19.9998 36.6796C29.1968 36.6796 36.6792 29.1973 36.6792 20.0001C36.6792 10.803 29.1968 3.32068 19.9998 3.32068Z" fill="#E8899E"/>
</g>
<defs>
<clipPath id="clip0">
<rect width="40" height="40" fill="white"/>
</clipPath>
</defs>
</svg>
