<svg width="40" height="40" viewBox="0 0 40 40" fill="none" xmlns="http://www.w3.org/2000/svg">
<g clip-path="url(#clip0)">
<path d="M39.4141 38.0535H37.1047V12.683C37.1047 12.3594 36.8423 12.097 36.5187 12.097H34.5805C34.2569 12.097 33.9945 12.3594 33.9945 12.683C33.9945 13.0066 34.2569 13.2689 34.5805 13.2689H35.9328V38.0533H30.4977V13.2689H32.0273C32.3509 13.2689 32.6133 13.0066 32.6133 12.683C32.6133 12.3594 32.3509 12.097 32.0273 12.097H29.9117C29.5881 12.097 29.3258 12.3594 29.3258 12.683V16.1973H23.3038C22.9802 16.1973 22.7179 16.4596 22.7179 16.7832V20.6024H16.6962C16.3726 20.6024 16.1102 20.8647 16.1102 21.1883V25.0074H10.0885C9.76492 25.0074 9.50258 25.2698 9.50258 25.5934V28.701H3.48125C3.15766 28.701 2.89531 28.9633 2.89531 29.2869V32.7955C2.89531 33.1191 3.15766 33.3814 3.48125 33.3814C3.80484 33.3814 4.06719 33.1191 4.06719 32.7955V29.8728H9.50234V38.0533H4.06719V35.3486C4.06719 35.025 3.80484 34.7627 3.48125 34.7627C3.15766 34.7627 2.89531 35.025 2.89531 35.3486V38.0535H0.585938C0.262344 38.0535 0 38.3158 0 38.6394C0 38.963 0.262344 39.2253 0.585938 39.2253H39.4141C39.7377 39.2253 40 38.963 40 38.6394C40 38.3158 39.7377 38.0535 39.4141 38.0535ZM10.6745 26.1793H16.1102V38.0535H10.6745V26.1793ZM17.2821 25.5934V21.7742H22.7179V38.0535H17.2821V25.5934ZM23.8898 38.0535V21.1883V17.3692H29.3255V38.0535H23.8898Z" fill="#E8899E"/>
<path d="M4.0306 26.1119C4.39724 26.1119 4.74857 25.9998 5.04599 25.7883L31.4357 7.08358C31.4179 7.4724 31.5293 7.85381 31.758 8.17654C32.0297 8.55959 32.4341 8.81397 32.8936 8.89217C32.9917 8.90944 33.0925 8.91819 33.1931 8.91819C34.0526 8.91819 34.7809 8.30295 34.9246 7.45576L35.5988 3.50178C35.6776 3.03912 35.5715 2.57334 35.3 2.19037C35.0283 1.80733 34.6239 1.55295 34.1611 1.4742L30.2071 0.799981C29.7443 0.721309 29.2786 0.827325 28.8956 1.09881C28.5125 1.37045 28.2582 1.7749 28.1794 2.23795C28.0295 3.11943 28.5675 3.96272 29.4027 4.21568L19.4917 11.2401C19.2276 11.4272 19.1653 11.793 19.3524 12.057C19.5395 12.3211 19.9052 12.3834 20.1693 12.1963L31.2185 4.36506C31.4118 4.22803 31.5036 3.98795 31.451 3.75693C31.3984 3.52584 31.2117 3.34928 30.9781 3.30943L29.814 3.11107C29.4955 3.05647 29.2805 2.75295 29.3347 2.43451C29.3609 2.28022 29.4457 2.14537 29.5734 2.0549C29.7011 1.96443 29.8565 1.9292 30.0101 1.95529L33.9642 2.62951C34.1186 2.65576 34.2533 2.74053 34.3439 2.86826C34.4343 2.99584 34.4697 3.151 34.4435 3.30498L33.7692 7.25936C33.7213 7.54154 33.479 7.74639 33.193 7.74639C33.1604 7.74639 33.1282 7.74358 33.0936 7.73756C32.9393 7.71131 32.8045 7.62654 32.714 7.49881C32.6235 7.37123 32.5881 7.21608 32.6143 7.06201L32.8128 5.89709C32.8525 5.6635 32.7477 5.42889 32.5472 5.30272C32.3466 5.17654 32.0897 5.18358 31.8964 5.32068L4.36763 24.8328C4.26896 24.903 4.15247 24.9401 4.0306 24.9401C3.83771 24.9401 3.66286 24.8499 3.55169 24.6935C3.36474 24.4297 3.42739 24.063 3.69138 23.8758L17.6156 14.0063C17.8796 13.8192 17.9419 13.4535 17.7548 13.1894C17.5677 12.9255 17.202 12.863 16.9379 13.0502L3.01372 22.9197C2.6306 23.1912 2.37607 23.5957 2.297 24.0587C2.21794 24.5218 2.32396 24.9879 2.59607 25.3719C2.92568 25.8353 3.46193 26.1119 4.0306 26.1119Z" fill="#E8899E"/>
</g>
<defs>
<clipPath id="clip0">
<rect width="40" height="40" fill="white"/>
</clipPath>
</defs>
</svg>
