<svg width="40" height="40" viewBox="0 0 40 40" fill="none" xmlns="http://www.w3.org/2000/svg">
<g clip-path="url(#clip0)">
<path d="M0.981142 24.927C1.20033 25.0793 1.43179 25.2131 1.67314 25.327C1.96114 25.4743 2.44447 25.721 2.47848 25.8937C2.52038 26.1216 2.49297 26.3568 2.39981 26.569C2.30048 26.7823 2.19648 26.9657 2.10648 27.1237C1.86248 27.555 1.45381 28.2777 2.06981 28.781C2.21381 28.9143 2.46248 29.107 2.68914 29.281C2.52228 29.5728 2.4468 29.9079 2.47248 30.243C2.50785 30.5069 2.65097 30.7444 2.86781 30.899C3.01581 31.003 3.17381 31.0937 3.32914 31.1823C3.72381 31.4063 3.87781 31.511 3.92914 31.7203C3.96618 31.9887 3.94342 32.2619 3.86248 32.5203C3.82314 32.6983 3.78514 32.877 3.76248 33.0537C3.69627 33.6612 3.77134 34.2759 3.98181 34.8497C4.28168 35.9089 5.23978 36.6468 6.34047 36.6663C6.5242 36.6658 6.70739 36.6464 6.88714 36.6083C8.79166 36.1569 10.6684 35.5953 12.5078 34.9263C14.0098 35.8077 14.9585 38.4877 15.2058 39.4937C15.2797 39.7911 15.5467 39.9998 15.8531 39.9997L32.5865 39.953C32.7985 39.9526 32.9978 39.8513 33.123 39.6802C33.2483 39.5091 33.2848 39.2886 33.2211 39.0863C33.0563 38.6346 32.829 38.2083 32.5458 37.8197C32.3859 37.5892 32.2418 37.3482 32.1145 37.0983C31.8125 36.4874 31.5608 35.8528 31.3618 35.201C30.981 33.9127 30.717 32.5927 30.5731 31.257C30.395 29.7145 30.5364 28.1518 30.9885 26.6663C31.1161 26.3204 30.9391 25.9366 30.5931 25.809C30.2472 25.6814 29.8634 25.8584 29.7358 26.2043C29.2122 27.8904 29.0471 29.6674 29.2511 31.421C29.405 32.8362 29.6857 34.2347 30.0898 35.5997C30.3092 36.3163 30.5858 37.0141 30.9171 37.6863C31.0692 37.9883 31.2419 38.2794 31.4338 38.5577L31.4785 38.6243L16.3571 38.6663C15.9146 37.0849 15.1113 35.6276 14.0105 34.409L14.6105 34.199C15.0571 34.043 15.3938 33.9257 15.5665 33.8703C18.4225 32.967 19.8505 31.6663 19.8118 30.0037C19.8031 29.6418 19.5072 29.3529 19.1451 29.353H19.1331C18.7652 29.3617 18.4739 29.667 18.4825 30.035C18.4985 30.721 17.9365 31.7217 15.1651 32.5983C14.9845 32.6563 14.6365 32.7777 14.1745 32.939C13.6791 33.1123 13.0491 33.3323 12.3545 33.5683H12.3498C10.4737 34.2561 8.55937 34.8348 6.61647 35.3017C5.99486 35.4211 5.38965 35.0291 5.24447 34.413C5.10205 34.0337 5.04846 33.6269 5.08781 33.2237C5.10514 33.0837 5.13714 32.945 5.16781 32.8057C5.30365 32.3448 5.32357 31.8575 5.22581 31.387C5.03205 30.7747 4.58135 30.277 3.99114 30.0237L3.85314 29.9443C3.92513 29.799 4.01109 29.661 4.10981 29.5323C4.22165 29.3906 4.27124 29.2096 4.24724 29.0307C4.22324 28.8518 4.1277 28.6902 3.98248 28.583C3.82247 28.4657 3.44514 28.183 3.16914 27.9603C3.20114 27.9023 3.23581 27.8383 3.26914 27.7803C3.37381 27.597 3.49314 27.3837 3.60981 27.137C3.82077 26.6697 3.88292 26.1488 3.78781 25.645C3.62781 24.8317 2.84847 24.433 2.28048 24.1423C2.08868 24.0512 1.90472 23.9444 1.73048 23.823C1.58872 23.7272 1.45575 23.619 1.33314 23.4997C1.33314 23.3983 1.44181 23.153 1.94981 22.535C3.14386 20.9978 4.16762 19.3357 5.00314 17.5777C5.15937 17.3022 5.24738 16.9934 5.25981 16.677C5.19095 16.0069 4.83584 15.3993 4.28581 15.0103C4.01914 14.763 3.76248 14.5297 3.73248 14.3123C3.7369 14.155 3.77224 14.0001 3.83648 13.8563C3.94514 13.5703 4.07048 13.2903 4.19648 13.0097C4.46984 12.446 4.68819 11.8573 4.84847 11.2517L4.91514 10.9677C5.05587 10.3012 5.23732 9.64396 5.45847 8.99968C5.98401 7.54918 6.79767 6.22006 7.85047 5.09234C9.12581 3.74301 11.1331 2.78834 13.8265 2.25301C15.8862 1.80085 17.9762 1.4996 20.0798 1.35168C23.8438 1.16568 27.0885 2.29834 30.5845 5.03234C31.0555 5.39923 31.4977 5.80174 31.9071 6.23634C32.1595 6.50457 32.5816 6.51741 32.8498 6.26501C33.118 6.01262 33.1309 5.59057 32.8785 5.32234C32.4221 4.83798 31.9291 4.38954 31.4038 3.98101C27.6391 1.03634 24.1205 -0.183656 20.0118 0.0203444C17.8425 0.170804 15.6872 0.480077 13.5631 0.945678C10.5571 1.54568 8.37247 2.59968 6.88114 4.17568C5.70475 5.43446 4.79517 6.91822 4.20714 8.53768C3.96705 9.23453 3.7698 9.94541 3.61648 10.6663L3.54981 10.9477C3.40752 11.4705 3.21669 11.979 2.97981 12.4663C2.84648 12.7703 2.70781 13.0743 2.58847 13.389C2.43504 13.7393 2.37442 14.1232 2.41248 14.5037C2.54662 15.1011 2.89143 15.6303 3.38381 15.9943C3.70981 16.293 3.92381 16.5037 3.92648 16.687C3.90262 16.7883 3.86446 16.8858 3.81314 16.9763C3.01479 18.6572 2.03688 20.2466 0.896475 21.717C0.413142 22.305 -0.0935245 22.991 0.0131422 23.6777C0.154555 24.2074 0.503512 24.6578 0.981142 24.927Z" fill="#E8899E"/>
<path d="M7.44484 11.8666L7.51151 11.5766C7.62846 11.0196 7.77738 10.4698 7.95751 9.92989C8.35958 8.81716 8.98174 7.79686 9.78685 6.92989C10.6509 6.11532 11.7085 5.53458 12.8595 5.24256C13.0919 5.17707 13.2708 4.99102 13.327 4.75621C13.3833 4.52139 13.3082 4.27451 13.1307 4.11081C12.9532 3.94711 12.701 3.89219 12.4715 3.96723C11.0978 4.32423 9.83928 5.02936 8.81751 6.01456C7.88913 7.01157 7.17147 8.18567 6.70751 9.46655C6.50765 10.0576 6.34291 10.66 6.21418 11.2706L6.14751 11.5592C6.09059 11.792 6.163 12.0374 6.33716 12.2021C6.51132 12.3667 6.76044 12.4251 6.98965 12.3552C7.21887 12.2853 7.39291 12.0977 7.44551 11.8639L7.44484 11.8666Z" fill="#E8899E"/>
<path d="M6.00016 14.6666C6.36835 14.6666 6.66683 14.3681 6.66683 13.9999C6.66683 13.6317 6.36835 13.3333 6.00016 13.3333C5.63197 13.3333 5.3335 13.6317 5.3335 13.9999C5.3335 14.3681 5.63197 14.6666 6.00016 14.6666Z" fill="#E8899E"/>
<path d="M36.276 7.39992C36.1938 7.04852 35.8469 6.82631 35.4933 6.89859C33.4466 7.38055 31.512 8.25245 29.7953 9.46659C29.0121 7.52378 27.8826 5.73929 26.462 4.19992C26.3368 4.07219 26.1655 4.00013 25.9866 3.99992C25.8041 3.9914 25.6277 4.06649 25.5073 4.20392C24.0989 5.75653 22.9831 7.55124 22.2139 9.50126C20.4853 8.26936 18.5331 7.38623 16.4666 6.90126C16.1134 6.82889 15.7667 7.05039 15.6839 7.40126C15.356 9.01039 15.2706 10.6595 15.4306 12.2939C14.4718 12.2017 13.5066 12.1988 12.5473 12.2853C12.1895 12.3262 11.9289 12.6437 11.9586 13.0026C11.9786 13.2413 12.4873 18.8746 16.3586 22.0539C19.1306 24.3299 22.7993 24.6706 24.7486 24.6706C25.2153 24.6706 25.5786 24.6513 25.8153 24.6339C25.869 24.6521 25.9248 24.6633 25.9813 24.6673C26.0436 24.6639 26.1052 24.6516 26.1639 24.6306C26.3786 24.6453 26.7113 24.6626 27.158 24.6626C29.0786 24.6626 32.818 24.3346 35.598 22.0559C39.4666 18.8726 39.978 13.2399 40 12.9999C40.0293 12.6416 39.7692 12.3245 39.412 12.2833C38.4534 12.1974 37.4889 12.2021 36.5313 12.2973C36.6913 10.6612 36.6052 9.01045 36.276 7.39992ZM35.164 12.4833C33.1647 12.7778 31.2763 13.5869 29.684 14.8313C29.5706 14.9213 29.466 15.0113 29.3606 15.1093L29.346 15.1239L29.338 15.1326C29.3286 15.1419 29.3193 15.1513 29.3106 15.1613C28.1881 16.215 27.2889 17.4837 26.6666 18.8919C26.6666 18.6599 26.66 18.4213 26.6493 18.1786C26.6918 16.3687 27.2074 14.6015 28.1446 13.0526C28.6322 12.305 29.2283 11.6341 29.9133 11.0619C31.4452 9.82825 33.2098 8.91567 35.102 8.37859C35.3035 9.73854 35.3244 11.1192 35.164 12.4846V12.4833ZM25.9913 5.67926C27.1513 7.07618 28.0681 8.65824 28.7033 10.3593C27.4428 11.4832 26.5022 12.9208 25.9773 14.5259C25.457 12.9456 24.537 11.5266 23.3066 10.4066C23.9296 8.69122 24.8372 7.09307 25.9913 5.67926ZM16.8613 8.37859C18.774 8.92126 20.5558 9.84888 22.0973 11.1046C22.7617 11.6669 23.3396 12.3239 23.8126 13.0546C24.749 14.6015 25.2659 16.3657 25.3126 18.1733C25.3013 18.4159 25.296 18.6506 25.2946 18.8779C24.6741 17.4972 23.7889 16.2515 22.6893 15.2113C22.6572 15.1745 22.621 15.1416 22.5813 15.1133C22.4813 15.0239 22.3879 14.9293 22.2833 14.8466C20.6864 13.6002 18.7963 12.7846 16.7939 12.4779C16.6366 11.1144 16.6593 9.73618 16.8613 8.37859ZM17.2066 21.0226C14.5113 18.8099 13.6346 15.0893 13.3806 13.5686C14.9139 13.5193 18.7333 13.6513 21.4366 15.8706C24.1399 18.0899 25.0086 21.8039 25.2626 23.3246C23.7333 23.3766 19.9099 23.2419 17.2066 21.0226ZM38.5766 13.5673C38.3253 15.0846 37.4546 18.8026 34.7506 21.0246C32.0266 23.2573 28.2173 23.3779 26.6953 23.3239C26.7406 23.0413 26.8073 22.6886 26.902 22.2873C26.902 22.2733 26.908 22.2586 26.9106 22.2446C27.3934 19.9114 28.5582 17.7742 30.2573 16.1039C30.2787 16.0844 30.2989 16.0637 30.318 16.0419C30.3846 15.9839 30.4513 15.9279 30.5226 15.8686C32.0748 14.6906 33.9135 13.9487 35.8486 13.7199C36.7517 13.5894 37.6646 13.5383 38.5766 13.5673Z" fill="#E8899E"/>
</g>
<defs>
<clipPath id="clip0">
<rect width="40" height="40" fill="white"/>
</clipPath>
</defs>
</svg>
